<svg width="16" height="12" viewBox="0 0 16 12" fill="none" xmlns="http://www.w3.org/2000/svg">
<path d="M15.1252 4.68L14.1873 3.9295C14.1835 3.9265 14.1797 3.92275 14.176 3.91975L15.0492 3.745C15.166 3.72175 15.25 3.61925 15.25 3.5V2.75C15.25 2.612 15.138 2.5 15 2.5H13.75C13.612 2.5 13.5 2.612 13.5 2.75V3.188C13.4943 3.18025 13.4885 3.1725 13.4827 3.16475C13.467 3.12125 13.439 3.08575 13.4035 3.0575C13.2627 2.85825 13.1423 2.65875 13.0638 2.48625L12.6412 1.557C12.372 0.96425 11.651 0.5 11 0.5H5C4.349 0.5 3.628 0.96425 3.35875 1.557L2.9365 2.486C2.858 2.6585 2.7375 2.85825 2.59675 3.0575C2.56125 3.08575 2.5335 3.12125 2.5175 3.16475C2.51175 3.1725 2.50625 3.18 2.50025 3.188V2.75C2.50025 2.612 2.38825 2.5 2.25025 2.5H1C0.862 2.5 0.75 2.612 0.75 2.75V3.5C0.75 3.61925 0.834 3.72175 0.951 3.745L1.82425 3.91975C1.8205 3.92275 1.81675 3.9265 1.813 3.9295L0.87475 4.68C0.38425 5.0725 0 5.872 0 6.5V10.75C0 11.1635 0.3365 11.5 0.75 11.5H2.75C3.1635 11.5 3.5 11.1635 3.5 10.75V10.25H12.5V10.75C12.5 11.1635 12.8365 11.5 13.25 11.5H15.25C15.6635 11.5 16 11.1635 16 10.75V6.5C16 5.872 15.6158 5.0725 15.1252 4.68ZM12.8535 9.75L12.2802 9.17675C12.037 8.9335 11.594 8.75 11.25 8.75H4.625C4.281 8.75 3.838 8.9335 3.59475 9.17675L3.0215 9.75H1.25C0.8365 9.75 0.5 9.4135 0.5 9V7.75H0.75V8C0.75 8.5515 1.1985 9 1.75 9H2.5C2.638 9 2.75 8.888 2.75 8.75C2.75 8.612 2.638 8.5 2.5 8.5H1.75C1.47425 8.5 1.25 8.27575 1.25 8V7.75H1.75C1.9575 7.75 2.28 7.8835 2.42675 8.03025C2.4755 8.079 2.5395 8.1035 2.6035 8.1035C2.6675 8.1035 2.7315 8.079 2.78025 8.03025C2.878 7.9325 2.878 7.7745 2.78025 7.67675C2.537 7.4335 2.09425 7.25 1.75 7.25H0.5V6.5C0.5 6.41175 0.514 6.3165 0.53375 6.21925C0.69375 6.38625 0.9265 6.5 1.25 6.5H3.25C3.31625 6.5 3.37975 6.47375 3.42675 6.42675L3.75 6.1035L4.07325 6.42675C4.12 6.47375 4.18375 6.5 4.25 6.5H7.1465L7.82325 7.17675C7.872 7.2255 7.936 7.25 8 7.25C8.064 7.25 8.128 7.2255 8.17675 7.17675L8.8535 6.5H11.75C11.8162 6.5 11.88 6.47375 11.9268 6.42675L12.25 6.1035L12.5732 6.42675C12.62 6.47375 12.6838 6.5 12.75 6.5H14.75C15.0735 6.5 15.3063 6.38625 15.4663 6.21925C15.486 6.3165 15.5 6.41175 15.5 6.5V7.25H14.25C13.906 7.25 13.463 7.4335 13.2198 7.67675C13.122 7.7745 13.122 7.9325 13.2198 8.03025C13.2685 8.079 13.3325 8.1035 13.3965 8.1035C13.4605 8.1035 13.5245 8.079 13.5732 8.03025C13.72 7.8835 14.0425 7.75 14.25 7.75H14.75V8C14.75 8.27575 14.5258 8.5 14.25 8.5H13.5C13.362 8.5 13.25 8.612 13.25 8.75C13.25 8.888 13.362 9 13.5 9H14.25C14.8015 9 15.25 8.5515 15.25 8V7.75H15.5V9C15.5 9.4135 15.1635 9.75 14.75 9.75H12.8535ZM12.1465 9.75H3.7285L3.94825 9.53025C4.095 9.3835 4.4175 9.25 4.625 9.25H11.25C11.4575 9.25 11.78 9.3835 11.9268 9.53025L12.1465 9.75ZM2.89 3.5H13.11C13.3523 3.82025 13.629 4.12325 13.8748 4.32L14.1755 4.5605L12.4073 5.26775C12.407 5.26775 12.407 5.268 12.4067 5.268C12.3765 5.28025 12.348 5.2985 12.3235 5.323L12.0735 5.573L11.6465 6H8.75C8.68375 6 8.62 6.02625 8.57325 6.07325L8 6.6465L7.42675 6.07325C7.38 6.02625 7.31625 6 7.25 6H4.3535L3.92675 5.57325L3.67675 5.32325C3.65225 5.29875 3.62375 5.2805 3.5935 5.26825C3.59325 5.26825 3.59325 5.268 3.593 5.268L1.82475 4.56075L2.1255 4.32025C2.371 4.12325 2.64775 3.82025 2.89 3.5ZM15.2353 5.60475C15.185 5.866 15.023 6 14.75 6H12.8535L12.6035 5.75L12.6405 5.713L14.6243 4.9195L14.8127 5.0705C14.9712 5.19725 15.1175 5.39 15.2353 5.60475ZM14 3H14.75V3.295L14 3.445V3ZM3.39125 2.693L3.8135 1.764C4.002 1.34975 4.54525 1 5 1H11C11.4548 1 11.998 1.34975 12.1862 1.76375L12.6088 2.693C12.6528 2.7895 12.71 2.89375 12.7727 3H3.22725C3.29 2.89375 3.3475 2.7895 3.39125 2.693ZM1.25 3H2V3.445L1.25 3.295V3ZM1.187 5.0705L1.3755 4.9195L3.3595 5.713L3.3965 5.75L3.1465 6H1.25C0.977 6 0.815 5.866 0.76475 5.60475C0.8825 5.39 1.0285 5.19725 1.187 5.0705ZM2.75 11H0.75C0.61225 11 0.5 10.8877 0.5 10.75V9.99375C0.7095 10.1522 0.9675 10.25 1.25 10.25H3V10.75C3 10.8877 2.88775 11 2.75 11ZM15.25 11H13.25C13.1123 11 13 10.8877 13 10.75V10.25H14.75C15.0325 10.25 15.2905 10.1522 15.5 9.99375V10.75C15.5 10.8877 15.3877 11 15.25 11Z" fill="#FF6D6D"/>
</svg>
