<svg width="16" height="16" viewBox="0 0 16 16" fill="none" xmlns="http://www.w3.org/2000/svg">
<g clip-path="url(#clip0_1_1810)">
<path d="M12.9389 2.71663H14.3329C14.4301 2.7183 14.526 2.73908 14.6152 2.77778C14.7045 2.81654 14.7852 2.87251 14.8529 2.94249C14.9206 3.01247 14.9738 3.09509 15.0095 3.18564C15.0452 3.27619 15.0628 3.37289 15.0611 3.47022L15.0611 3.47022V3.47107L15.0611 13.4177L15.0611 13.4186C15.0628 13.5159 15.0452 13.6126 15.0095 13.7032C14.9738 13.7937 14.9206 13.8763 14.8529 13.9463C14.7852 14.0163 14.7045 14.0723 14.6152 14.111C14.526 14.1497 14.4301 14.1705 14.3329 14.1722H1.6671C1.5699 14.1705 1.47399 14.1497 1.38481 14.111C1.29552 14.0723 1.21473 14.0163 1.14707 13.9463C1.07941 13.8763 1.0262 13.7937 0.990476 13.7032C0.954752 13.6126 0.937216 13.5159 0.93887 13.4186H0.938878V13.4177V3.47107H0.938885L0.93887 3.47022C0.937216 3.37289 0.954752 3.27619 0.990476 3.18564C1.0262 3.09509 1.07941 3.01247 1.14707 2.94249C1.21473 2.87251 1.29552 2.81654 1.38481 2.77778C1.47398 2.73908 1.56989 2.7183 1.66708 2.71663H3.0611V3.50551H1.77777H1.72777V3.55551V13.3333V13.3833H1.77777H14.2222H14.2722V13.3333V3.55551V3.50551H14.2222H12.9389V2.71663Z" fill="#FF6D6D" stroke="white" stroke-width="0.1"/>
<path d="M3.60554 6.27217H4.39443V7.06106H3.60554V6.27217Z" fill="#FF6D6D" stroke="white" stroke-width="0.1"/>
<path d="M6.27223 6.27217H7.06112V7.06106H6.27223V6.27217Z" fill="#FF6D6D" stroke="white" stroke-width="0.1"/>
<path d="M8.93889 6.27217H9.72777V7.06106H8.93889V6.27217Z" fill="#FF6D6D" stroke="white" stroke-width="0.1"/>
<path d="M11.6055 6.27217H12.3944V7.06106H11.6055V6.27217Z" fill="#FF6D6D" stroke="white" stroke-width="0.1"/>
<path d="M3.60554 8.49446H4.39443V9.28335H3.60554V8.49446Z" fill="#FF6D6D" stroke="white" stroke-width="0.1"/>
<path d="M6.27223 8.49446H7.06112V9.28335H6.27223V8.49446Z" fill="#FF6D6D" stroke="white" stroke-width="0.1"/>
<path d="M8.93889 8.49446H9.72777V9.28335H8.93889V8.49446Z" fill="#FF6D6D" stroke="white" stroke-width="0.1"/>
<path d="M11.6055 8.49446H12.3944V9.28335H11.6055V8.49446Z" fill="#FF6D6D" stroke="white" stroke-width="0.1"/>
<path d="M3.60554 10.7166H4.39443V11.5055H3.60554V10.7166Z" fill="#FF6D6D" stroke="white" stroke-width="0.1"/>
<path d="M6.27223 10.7166H7.06112V11.5055H6.27223V10.7166Z" fill="#FF6D6D" stroke="white" stroke-width="0.1"/>
<path d="M8.93889 10.7166H9.72777V11.5055H8.93889V10.7166Z" fill="#FF6D6D" stroke="white" stroke-width="0.1"/>
<path d="M11.6055 10.7166H12.3944V11.5055H11.6055V10.7166Z" fill="#FF6D6D" stroke="white" stroke-width="0.1"/>
<path d="M4.72336 4.27894C4.64939 4.35291 4.54906 4.39447 4.44444 4.39447C4.33983 4.39447 4.2395 4.35291 4.16553 4.27894C4.09156 4.20497 4.05 4.10464 4.05 4.00003V1.33336C4.05 1.22875 4.09156 1.12842 4.16553 1.05445C4.2395 0.980473 4.33983 0.938916 4.44444 0.938916C4.54906 0.938916 4.64939 0.980473 4.72336 1.05445C4.79733 1.12842 4.83889 1.22875 4.83889 1.33336V4.00003C4.83889 4.10464 4.79733 4.20497 4.72336 4.27894Z" fill="#FF6D6D" stroke="white" stroke-width="0.1"/>
<path d="M11.8345 4.27894C11.7605 4.35291 11.6602 4.39447 11.5556 4.39447C11.4509 4.39447 11.3506 4.35291 11.2766 4.27894C11.2027 4.20497 11.1611 4.10464 11.1611 4.00003V1.33336C11.1611 1.22875 11.2027 1.12842 11.2766 1.05445C11.3506 0.980473 11.4509 0.938916 11.5556 0.938916C11.6602 0.938916 11.7605 0.980473 11.8345 1.05445C11.9084 1.12842 11.95 1.22875 11.95 1.33336V4.00003C11.95 4.10464 11.9084 4.20497 11.8345 4.27894Z" fill="#FF6D6D" stroke="white" stroke-width="0.1"/>
<path d="M5.82777 2.71663H10.1722V3.50551H5.82777V2.71663Z" fill="#FF6D6D" stroke="white" stroke-width="0.1"/>
</g>
<defs>
<clipPath id="clip0_1_1810">
<rect width="16" height="16" fill="white"/>
</clipPath>
</defs>
</svg>
