<svg width="17" height="17" viewBox="0 0 17 17" fill="none" xmlns="http://www.w3.org/2000/svg">
<path d="M3.63282 2.95809H0.499996C0.223821 2.95809 0 2.73412 0 2.45809C0 2.18207 0.223821 1.9581 0.499996 1.9581H3.63282C3.909 1.9581 4.13282 2.18207 4.13282 2.45809C4.13282 2.73412 3.909 2.95809 3.63282 2.95809Z" fill="white"/>
<path d="M5.42304 4.74816C4.16017 4.74816 3.13281 3.7208 3.13281 2.45804C3.13281 1.19502 4.16017 0.167664 5.42304 0.167664C6.68592 0.167664 7.71328 1.19502 7.71328 2.45804C7.71328 3.72084 6.68592 4.74816 5.42304 4.74816ZM5.42304 1.16769C4.71159 1.16769 4.1328 1.74659 4.1328 2.45804C4.1328 3.1695 4.71159 3.74814 5.42304 3.74814C6.1345 3.74814 6.71328 3.1695 6.71328 2.45804C6.71328 1.74659 6.1345 1.16769 5.42304 1.16769Z" fill="white"/>
<path d="M16.5003 2.95818H9.02734C8.75116 2.95818 8.52734 2.73421 8.52734 2.45819C8.52734 2.18216 8.75116 1.95819 9.02734 1.95819H16.5002C16.7764 1.95819 17.0002 2.18216 17.0002 2.45819C17.0002 2.73421 16.7765 2.95818 16.5003 2.95818Z" fill="white"/>
<path d="M12.1359 10.7901C10.873 10.7901 9.8457 9.76278 9.8457 8.50002C9.8457 7.23726 10.8731 6.2099 12.1359 6.2099C13.3988 6.2099 14.4262 7.23726 14.4262 8.50002C14.4262 9.76278 13.3988 10.7901 12.1359 10.7901ZM12.1359 7.20993C11.4245 7.20993 10.8457 7.78856 10.8457 8.50002C10.8457 9.21147 11.4245 9.79011 12.1359 9.79011C12.8474 9.79011 13.4262 9.21147 13.4262 8.50002C13.4262 7.78856 12.8474 7.20993 12.1359 7.20993Z" fill="white"/>
<path d="M8.53243 8.99999H0.499996C0.223821 8.99999 0 8.77602 0 8.5C0 8.22397 0.223821 8 0.499996 8H8.53243C8.80861 8 9.03243 8.22397 9.03243 8.5C9.03243 8.77602 8.80861 8.99999 8.53243 8.99999Z" fill="white"/>
<path d="M16.4992 8.99993H13.9258C13.6496 8.99993 13.4258 8.77596 13.4258 8.49993C13.4258 8.22391 13.6496 7.99994 13.9258 7.99994H16.4992C16.7754 7.99994 16.9992 8.22391 16.9992 8.49993C16.9992 8.77596 16.7754 8.99993 16.4992 8.99993Z" fill="white"/>
<path d="M4.86445 16.8324C3.60158 16.8324 2.57422 15.805 2.57422 14.542C2.57422 13.2793 3.60158 12.2519 4.86445 12.2519C6.12732 12.2519 7.15468 13.2793 7.15468 14.542C7.15468 15.805 6.12732 16.8324 4.86445 16.8324ZM4.86445 13.2519C4.153 13.2519 3.57421 13.8306 3.57421 14.542C3.57421 15.2535 4.153 15.8324 4.86445 15.8324C5.5759 15.8324 6.15469 15.2535 6.15469 14.542C6.15469 13.8306 5.5759 13.2519 4.86445 13.2519Z" fill="white"/>
<path d="M16.4992 15.0419H8.46679C8.19062 15.0419 7.9668 14.818 7.9668 14.5419C7.9668 14.2659 8.19062 14.0419 8.46679 14.0419H16.4992C16.7754 14.0419 16.9992 14.2659 16.9992 14.5419C16.9992 14.818 16.7754 15.0419 16.4992 15.0419Z" fill="white"/>
<path d="M3.07344 15.0419H0.499996C0.223821 15.0419 0 14.818 0 14.5419C0 14.2659 0.223821 14.0419 0.499996 14.0419H3.07344C3.34961 14.0419 3.57343 14.2659 3.57343 14.5419C3.57343 14.818 3.34961 15.0419 3.07344 15.0419Z" fill="white"/>
</svg>
