<svg width="15" height="15" viewBox="0 0 15 15" fill="none" xmlns="http://www.w3.org/2000/svg">
<path d="M8.27637 0.0387932C8.01855 0.0128171 7.75959 -0.000113678 7.50052 7.52823e-07H7.49274C7.06396 0.00709555 6.72112 0.358631 6.72478 0.787522V3.87902C6.72375 3.98315 6.74492 4.08625 6.78681 4.18158C6.92103 4.50107 7.25151 4.69217 7.59527 4.64926C7.99235 4.58975 8.28369 4.2452 8.27637 3.84389V1.60331C11.1733 1.98357 13.3656 4.4109 13.4496 7.33155C13.5336 10.2522 11.4846 12.8016 8.61429 13.3477C5.74399 13.8939 2.90184 12.2751 1.90742 9.52772C0.91301 6.78033 2.06053 3.71744 4.61546 2.29986C4.95509 2.1075 5.09722 1.69142 4.94617 1.33153L4.94525 1.32936C4.86057 1.12464 4.69259 0.965921 4.4834 0.892799C4.27434 0.819792 4.04398 0.839474 3.85025 0.946811C0.617661 2.74797 -0.817889 6.63786 0.469586 10.1071C1.75695 13.5764 5.38261 15.588 9.00759 14.8444C12.6326 14.1007 15.1733 10.824 14.9907 7.12797C14.8081 3.43205 11.957 0.421683 8.27637 0.0387932Z" fill="#C4C4C4"/>
</svg>
