<svg width="27" height="29" viewBox="0 0 27 29" fill="none" xmlns="http://www.w3.org/2000/svg">
<path d="M21.1487 14.2425H23.1716C23.6289 14.2425 24.001 13.8704 24.001 13.4131V11.3903C24.001 10.9329 23.6289 10.5609 23.1716 10.5609H21.1487C20.6914 10.5609 20.3193 10.9329 20.3193 11.3903V13.4131C20.3193 13.8704 20.6914 14.2425 21.1487 14.2425ZM21.1689 11.4105H23.1514V13.3929H21.1689V11.4105ZM21.1487 19.6234H23.1716C23.6289 19.6234 24.001 19.2513 24.001 18.794V16.7711C24.001 16.3138 23.6289 15.9417 23.1716 15.9417H21.1487C20.6914 15.9417 20.3193 16.3138 20.3193 16.7711V18.794C20.3193 19.2513 20.6914 19.6234 21.1487 19.6234ZM21.1689 16.7913H23.1514V18.7738H21.1689V16.7913ZM15.3761 14.2425H17.399C17.8563 14.2425 18.2284 13.8704 18.2284 13.4131V11.3903C18.2284 10.9329 17.8563 10.5609 17.399 10.5609H15.3761C14.9188 10.5609 14.5468 10.9329 14.5468 11.3903V13.4131C14.5468 13.8704 14.9188 14.2425 15.3761 14.2425ZM15.3964 11.4105H17.3788V13.3929H15.3964V11.4105ZM5.85384 21.0703H3.83098C3.37366 21.0703 3.00159 21.4424 3.00159 21.8997V23.9226C3.00159 24.3799 3.37366 24.752 3.83098 24.752H5.85384C6.31116 24.752 6.68323 24.3799 6.68323 23.9226V21.8997C6.68323 21.4424 6.31116 21.0703 5.85384 21.0703ZM5.83362 23.9023H3.8512V21.9199H5.83362V23.9023ZM5.85384 10.5609H3.83098C3.37366 10.5609 3.00159 10.9329 3.00159 11.3903V13.4131C3.00159 13.8704 3.37366 14.2425 3.83098 14.2425H5.85384C6.31116 14.2425 6.68323 13.8704 6.68323 13.4131V11.3903C6.68323 10.9329 6.31116 10.5609 5.85384 10.5609ZM5.83362 13.3929H3.8512V11.4105H5.83362V13.3929ZM15.3761 19.4972H17.399C17.8563 19.4972 18.2284 19.1252 18.2284 18.6678V16.645C18.2284 16.1877 17.8563 15.8156 17.399 15.8156H15.3761C14.9188 15.8156 14.5468 16.1877 14.5468 16.645V18.6678C14.5468 19.1252 14.9188 19.4972 15.3761 19.4972ZM15.3964 16.6652H17.3788V18.6476H15.3964V16.6652ZM24.4229 1.9413H22.6066V1.2918C22.6066 0.57949 22.0272 0 21.3148 0H21.1198C20.4075 0 19.828 0.57949 19.828 1.2918V1.9413H7.17453V1.2918C7.17453 0.57949 6.59504 0 5.88273 0H5.68766C4.97534 0 4.39585 0.57949 4.39585 1.2918V1.9413H2.57967C1.40693 1.9413 0.45282 2.89541 0.45282 4.06816V26.876C0.45282 28.0472 1.40563 29 2.57684 29H24.4258C25.597 29 26.5499 28.0472 26.5499 26.876V4.06816C26.5498 2.89541 25.5957 1.9413 24.4229 1.9413ZM20.6776 1.2918C20.6776 1.04796 20.876 0.849609 21.1198 0.849609H21.3149C21.5587 0.849609 21.7571 1.04796 21.7571 1.2918V1.9413H20.6776V1.2918ZM5.24552 1.2918C5.24552 1.04796 5.44387 0.849609 5.68771 0.849609H5.88278C6.12662 0.849609 6.32498 1.04796 6.32498 1.2918V1.9413H5.24558V1.2918H5.24552ZM25.7002 26.876C25.7002 27.5787 25.1285 28.1504 24.4258 28.1504H2.57679C1.87405 28.1504 1.30237 27.5787 1.30237 26.876V26.8733C1.6583 27.1415 2.10072 27.3008 2.57967 27.3008H19.8031C20.3712 27.3008 20.9053 27.0795 21.307 26.6778L25.7002 22.2846V26.876ZM20.8736 25.9097C20.9069 25.7723 20.925 25.6289 20.925 25.4814V22.6457C20.925 22.111 21.36 21.676 21.8948 21.676H24.7304C24.8779 21.676 25.0213 21.6578 25.1588 21.6245L20.8736 25.9097ZM25.7002 8.01204H7.59933C7.36473 8.01204 7.17453 8.20224 7.17453 8.43685C7.17453 8.67145 7.36473 8.86165 7.59933 8.86165H25.7002V19.8566C25.7002 20.3914 25.2651 20.8264 24.7304 20.8264H21.8948C20.8916 20.8264 20.0754 21.6426 20.0754 22.6458V25.4814C20.0754 26.0162 19.6403 26.4512 19.1056 26.4512H2.57967C1.8754 26.4512 1.30243 25.8783 1.30243 25.1739V8.86165H5.90011C6.13472 8.86165 6.32492 8.67145 6.32492 8.43685C6.32492 8.20224 6.13472 8.01204 5.90011 8.01204H1.30237V4.06816C1.30237 3.36389 1.87535 2.79091 2.57962 2.79091H4.39585V4.03995C4.39585 4.75226 4.97534 5.33175 5.68766 5.33175C5.92226 5.33175 6.11246 5.14155 6.11246 4.90695C6.11246 4.67234 5.92226 4.48214 5.68766 4.48214C5.44382 4.48214 5.24546 4.28379 5.24546 4.03995V2.79091H19.828V4.03995C19.828 4.75226 20.4075 5.33175 21.1198 5.33175C21.3544 5.33175 21.5446 5.14155 21.5446 4.90695C21.5446 4.67234 21.3544 4.48214 21.1198 4.48214C20.876 4.48214 20.6776 4.28379 20.6776 4.03995V2.79091H24.4229C25.1272 2.79091 25.7002 3.36389 25.7002 4.06816V8.01204ZM5.85384 15.8156H3.83098C3.37366 15.8156 3.00159 16.1877 3.00159 16.645V18.6678C3.00159 19.1252 3.37366 19.4972 3.83098 19.4972H5.85384C6.31116 19.4972 6.68323 19.1252 6.68323 18.6678V16.645C6.68323 16.1876 6.31116 15.8156 5.85384 15.8156ZM5.83362 18.6476H3.8512V16.6652H5.83362V18.6476ZM9.60356 14.2425H11.6264C12.0837 14.2425 12.4558 13.8704 12.4558 13.4131V11.3903C12.4558 10.9329 12.0837 10.5609 11.6264 10.5609H9.60356C9.14624 10.5609 8.77417 10.9329 8.77417 11.3903V13.4131C8.77417 13.8704 9.14624 14.2425 9.60356 14.2425ZM9.62378 11.4105H11.6062V13.3929H9.62378V11.4105ZM15.3959 23.9023C15.3853 23.6771 15.1994 23.4978 14.9715 23.4978C14.7369 23.4978 14.5467 23.688 14.5467 23.9226C14.5467 24.3799 14.9188 24.752 15.3761 24.752H17.3989C17.8563 24.752 18.2283 24.3799 18.2283 23.9226V21.8997C18.2283 21.4424 17.8563 21.0703 17.3989 21.0703H15.3761C14.9188 21.0703 14.5467 21.4424 14.5467 21.8997V22.4831C14.5467 22.7177 14.7369 22.9079 14.9715 22.9079C15.2061 22.9079 15.3963 22.7177 15.3963 22.4831V21.9199H17.3787V23.9023H15.3959ZM9.60356 19.4972H11.6264C12.0837 19.4972 12.4558 19.1252 12.4558 18.6678V16.645C12.4558 16.1877 12.0837 15.8156 11.6264 15.8156H9.60356C9.14624 15.8156 8.77417 16.1877 8.77417 16.645V18.6678C8.77417 19.1252 9.14624 19.4972 9.60356 19.4972ZM9.62378 16.6652H11.6062V18.6476H9.62378V16.6652ZM9.60356 24.752H11.6264C12.0837 24.752 12.4558 24.3799 12.4558 23.9226V21.8997C12.4558 21.4424 12.0837 21.0703 11.6264 21.0703H9.60356C9.14624 21.0703 8.77417 21.4424 8.77417 21.8997V23.9226C8.77417 24.3799 9.14624 24.752 9.60356 24.752ZM9.62378 21.9199H11.6062V23.9023H9.62378V21.9199Z" fill="white"/>
</svg>
