<svg width="29" height="28" viewBox="0 0 29 28" fill="none" xmlns="http://www.w3.org/2000/svg">
<path d="M6.82465 20.7748H7.72778V21.678H6.82465V20.7748Z" fill="white"/>
<path d="M26.6573 3.38589L18.4554 0.103407C17.6581 -0.192494 16.8213 0.206377 16.5291 0.94106L15.9561 2.3703C15.8893 2.55 15.8553 2.73146 15.8553 2.91072C15.8553 3.20839 15.9484 3.49702 16.1117 3.74088L14.7914 6.77619H14.208L12.8886 3.7422C13.0528 3.4979 13.1459 3.20883 13.1459 2.91072C13.1459 2.7319 13.1119 2.55 13.0412 2.35861L12.4727 0.941942C12.1795 0.205054 11.3802 -0.20859 10.535 0.106935L2.34483 3.38545C1.77397 3.61211 1.40509 4.15629 1.40509 4.77124C1.40509 4.95006 1.43905 5.13197 1.50982 5.32358L2.07848 6.74003C2.29279 7.27935 2.79089 7.63368 3.36351 7.67205L7.49003 17.1623H6.37235C5.62555 17.1623 5.01765 17.7702 5.01765 18.517C5.01765 18.8832 5.16075 19.2237 5.41233 19.4689C5.49634 19.5553 5.59247 19.623 5.69368 19.6825C5.28554 20.1039 5.03132 20.6761 5.03132 21.3078C5.03132 21.4829 5.04984 21.6495 5.0871 21.8162L6.46187 28H20.7273L22.6875 19.8303C24.4528 19.589 25.7898 18.0835 25.7898 16.2592C25.7898 14.7117 24.8023 13.357 23.3843 12.8572L25.6377 7.67205C26.2103 7.63368 26.7089 7.27935 26.923 6.74135L27.4958 5.31233C27.5622 5.13197 27.5961 4.95051 27.5961 4.77124C27.5961 4.15629 27.2272 3.61211 26.6573 3.38589ZM16.1082 6.01482L17.4863 6.59604L17.8373 5.7639L16.4685 5.18621L16.8471 4.31703L24.7381 7.47515L24.2989 8.48633L18.6763 6.12L18.3264 6.9528L23.9388 9.3145L23.4954 10.3345L18.1068 8.06761C18.073 7.35057 17.4837 6.77619 16.7585 6.77619H15.7768L16.1082 6.01482ZM11.3482 17.9069C11.8531 17.1579 12.6939 16.7107 13.5975 16.7107C14.501 16.7107 15.342 17.1579 15.8467 17.9069C16.1479 18.3527 16.3069 18.876 16.3069 19.4201C16.3069 19.9643 16.1479 20.4878 15.8467 20.9334C15.342 21.6826 14.501 22.1296 13.5975 22.1296C12.1032 22.1296 10.888 20.9144 10.888 19.4201C10.888 18.876 11.047 18.3527 11.3482 17.9069ZM12.2428 15.8076C11.714 15.8076 11.2461 15.511 11.0199 15.0295C11.0005 14.9893 10.9915 14.9461 10.976 14.9044H16.2229C16.0372 15.4314 15.5411 15.8076 14.9526 15.8076H12.2428ZM7.45343 14.8132L9.19202 14.0831C9.34504 14.439 9.64888 14.7113 10.0206 14.8323C10.0292 14.8815 10.0374 14.9311 10.0491 14.9794L7.91669 15.8786L7.45343 14.8132ZM16.7585 7.67933C17.0074 7.67933 17.21 7.88218 17.21 8.1309V10.3887H13.1459C12.3991 10.3887 11.7912 10.9966 11.7912 11.7435C11.7912 12.1097 11.9343 12.4501 12.1859 12.6953C12.4392 12.9551 12.7797 13.0982 13.1459 13.0982H17.21V13.5497C17.21 13.7987 17.0074 14.0013 16.7585 14.0013H10.4365C10.1878 14.0013 9.98491 13.7987 9.98491 13.5497V11.2648C9.98491 11.0535 10.0332 10.8467 10.1267 10.6628L11.2417 8.42856C11.471 7.97324 11.9475 7.67933 12.4551 7.67933H16.7585ZM18.6827 17.1623H16.4116C16.2266 16.9317 16.0165 16.7275 15.7854 16.5513C16.4043 16.3074 16.8813 15.7985 17.0872 15.1745L18.5949 15.8089C18.5755 15.9575 18.5647 16.107 18.5647 16.2592C18.5647 16.5681 18.6073 16.8693 18.6827 17.1623ZM17.21 12.195H13.1459C13.0253 12.195 12.9142 12.1489 12.8244 12.057C12.7404 11.9752 12.6943 11.8641 12.6943 11.7435C12.6943 11.4947 12.8972 11.2919 13.1459 11.2919H17.21V12.195ZM9.32057 10.2564C9.20194 10.49 9.12609 10.7477 9.09676 11.013L6.30996 12.1833L5.86654 11.1633L9.66652 9.56322L9.32057 10.2564ZM9.08177 11.9986V13.1506L7.09359 13.9856L6.67002 13.0115L9.08177 11.9986ZM16.9382 18.0654H19.0555C19.2628 18.4217 19.5265 18.7393 19.8392 19.0034L19.1576 20.7748H16.9382C17.1117 20.3473 17.21 19.8911 17.21 19.4201C17.21 18.9492 17.1117 18.4932 16.9382 18.0654ZM18.8276 14.9272L17.7452 14.4718C17.9718 14.2293 18.1132 13.9065 18.1132 13.5497V13.3678L19.4321 13.9241C19.1775 14.2231 18.9724 14.5609 18.8276 14.9272ZM20.1849 13.2613L18.1132 12.3875V11.2359L21.5809 12.6953C21.0772 12.778 20.6085 12.9767 20.1849 13.2613ZM22.6921 12.1833L18.1132 10.256V9.05035L23.1355 11.1638L22.6921 12.1833ZM12.4551 6.77619C11.6093 6.77619 10.8162 7.26524 10.4338 8.02528L10.2857 8.3225L5.50626 10.3345L5.06285 9.31494L12.8934 6.01482L13.2248 6.77619H12.4551ZM2.91701 6.40466L2.35255 4.99791C2.32366 4.9203 2.30823 4.8418 2.30823 4.77124C2.30823 4.52826 2.45375 4.31372 2.67954 4.22398L10.86 0.9501C11.206 0.821773 11.5184 0.98582 11.634 1.27753L12.1984 2.68406C12.2273 2.76167 12.2428 2.84039 12.2428 2.91072C12.2428 3.07477 12.1768 3.22735 12.054 3.34201C12.0044 3.38941 11.9389 3.43109 11.8726 3.45799L10.7165 3.9186L11.0506 4.75735L12.1552 4.31747L12.5354 5.19172L4.70256 8.48721L4.26312 7.47625L10.1525 5.11852L9.81689 4.28043L3.68543 6.73429C3.64993 6.74818 3.61156 6.75855 3.59436 6.76274C3.30993 6.80198 3.02263 6.67057 2.91701 6.40466ZM8.27675 16.7072L10.4356 15.7968C10.6867 16.1385 11.0234 16.397 11.4115 16.5495C11.1798 16.7262 10.969 16.9308 10.7833 17.1623H8.47453L8.27675 16.7072ZM20.0147 27.0968H7.18619L5.96819 21.6193C5.94526 21.5172 5.93379 21.4152 5.93379 21.3078C5.93379 20.5162 6.57829 19.8717 7.36986 19.8717C7.95241 19.8717 8.47255 20.2181 8.69613 20.7546L10.5869 25.2905H13.229C13.416 25.8149 13.9128 26.1937 14.5006 26.1937C15.2474 26.1937 15.8553 25.586 15.8553 24.839C15.8553 24.783 15.8454 24.7294 15.8386 24.6751L17.412 23.8884L17.0078 23.0805L15.4381 23.8655C15.1947 23.6307 14.8651 23.4843 14.5006 23.4843C13.9128 23.4843 13.416 23.8631 13.229 24.3874H11.1888L9.53025 20.4068C9.16622 19.533 8.31865 18.9686 7.37031 18.9686H6.37235C6.25174 18.9686 6.14062 18.9225 6.05088 18.8305C5.96687 18.7487 5.92078 18.6376 5.92078 18.517C5.92078 18.2683 6.12364 18.0654 6.37235 18.0654H10.2568C10.0835 18.4932 9.98491 18.9492 9.98491 19.4201C9.98491 21.4121 11.6055 23.0327 13.5975 23.0327C14.7002 23.0327 15.729 22.5289 16.4116 21.678H19.7781L21.948 16.0351C22.0016 15.8971 22.1308 15.8076 22.2767 15.8076C22.4708 15.8076 22.6289 15.9657 22.6289 16.1643C22.6289 16.1807 22.6271 16.2087 22.6189 16.2439L20.0147 27.0968ZM14.049 24.839C14.049 24.5903 14.2519 24.3874 14.5006 24.3874C14.7495 24.3874 14.9522 24.5903 14.9522 24.839C14.9522 25.0879 14.7495 25.2905 14.5006 25.2905C14.2519 25.2905 14.049 25.0879 14.049 24.839ZM24.8867 16.2592C24.8867 17.5005 24.0607 18.5432 22.9197 18.8607L23.498 16.4501C23.5208 16.3518 23.532 16.2556 23.532 16.1599C23.532 15.4676 22.9689 14.9044 22.2767 14.9044C21.7564 14.9044 21.2973 15.2193 21.1052 15.7088L20.1891 18.0921C20.0039 17.893 19.8454 17.669 19.7272 17.4211C19.555 17.0567 19.4679 16.6655 19.4679 16.2592C19.4679 16.0451 19.4932 15.8378 19.5459 15.6226C19.6868 15.029 20.0279 14.4981 20.511 14.1254C20.9875 13.7488 21.5637 13.5497 22.1773 13.5497C22.3612 13.5497 22.5272 13.566 22.693 13.6004C23.9642 13.8441 24.8867 14.9627 24.8867 16.2592ZM26.6533 4.98711L26.0838 6.40642C25.9945 6.63088 25.7799 6.77619 25.5369 6.77619C25.4946 6.77619 25.449 6.76847 25.4309 6.76671C25.3899 6.75855 25.3513 6.74774 25.3211 6.7365L17.132 3.45909C17.0627 3.43109 16.9972 3.38941 16.9472 3.34201L16.945 3.3398C16.8244 3.22735 16.7585 3.07477 16.7585 2.91072C16.7585 2.84039 16.7739 2.76167 16.7981 2.69486L17.3677 1.27577C17.457 1.05131 17.6715 0.905781 17.9145 0.905781C17.9848 0.905781 18.0635 0.921216 18.1308 0.94547L26.3232 4.22442C26.5477 4.31372 26.693 4.52826 26.693 4.77124C26.693 4.8418 26.6775 4.9203 26.6533 4.98711Z" fill="white"/>
<path d="M14.5004 19.4201C14.5004 19.552 14.4706 19.679 14.4087 19.8091L15.2247 20.1965C15.3436 19.9462 15.4035 19.6851 15.4035 19.4201C15.4035 18.4239 14.5934 17.6138 13.5972 17.6138C13.3322 17.6138 13.0711 17.674 12.8211 17.7927L13.2085 18.6087C13.8299 18.3128 14.5004 18.7902 14.5004 19.4201Z" fill="white"/>
<path d="M13.5992 21.2264C13.8643 21.2264 14.1253 21.1664 14.3756 21.0476L13.988 20.2315C13.3666 20.527 12.6961 20.0496 12.6961 19.4201C12.6961 19.2883 12.7259 19.1615 12.7878 19.0314L11.9718 18.644C11.8529 18.894 11.793 19.1551 11.793 19.4201C11.793 20.4163 12.6031 21.2264 13.5992 21.2264Z" fill="white"/>
<path d="M15.4051 8.58252H16.3083V9.48567H15.4051V8.58252Z" fill="white"/>
<path d="M13.5977 8.58252H14.5008V9.48567H13.5977V8.58252Z" fill="white"/>
<path d="M11.793 8.58252H12.6961V9.48567H11.793V8.58252Z" fill="white"/>
</svg>
