<svg width="28" height="28" viewBox="0 0 28 28" fill="none" xmlns="http://www.w3.org/2000/svg">
<g clip-path="url(#clip0_3_551)">
<path d="M26.2163 15.3353L22.3125 13.7082V12.5401C22.8499 12.2317 23.3152 11.8121 23.6773 11.3094C24.0395 10.8066 24.2901 10.2324 24.4125 9.62502H24.5C24.8481 9.62978 25.1838 9.49606 25.4333 9.25329C25.6828 9.01051 25.8257 8.67856 25.8304 8.33046C25.8352 7.98237 25.7015 7.64664 25.4587 7.39713C25.2159 7.14762 24.884 7.00478 24.5359 7.00002L24.9646 6.00602C25.331 5.15664 25.3497 4.19748 25.0168 3.33444C24.6839 2.4714 24.0259 1.77329 23.184 1.38996L21.9625 0.834336C21.2397 0.513435 20.4449 0.389414 19.6588 0.474855C18.8726 0.560297 18.123 0.85216 17.486 1.32084L16.8053 1.83446C16.1102 2.01348 15.5132 2.45824 15.1428 3.07302C14.9382 3.41263 14.8105 3.79296 14.7688 4.18723C14.7271 4.58149 14.7723 4.98012 14.9013 5.35502C14.2408 5.22291 13.5591 5.2395 12.9058 5.40359C13.0928 4.6098 12.9985 3.7757 12.6388 3.04376C12.2792 2.31182 11.6766 1.72743 10.934 1.3904L9.71251 0.834336C8.98973 0.513435 8.19493 0.389414 7.40875 0.474855C6.62257 0.560297 5.87297 0.85216 5.236 1.32084L4.55525 1.83446C4.16097 1.93521 3.79425 2.12297 3.48201 2.38396C3.16978 2.64495 2.91994 2.97255 2.75085 3.34271C2.58176 3.71287 2.4977 4.11619 2.50484 4.52308C2.51198 4.92997 2.61015 5.33009 2.79213 5.69409L3.44575 7.00002C3.09766 7.00722 2.76668 7.1524 2.52562 7.40363C2.28457 7.65485 2.15318 7.99155 2.16038 8.33965C2.16757 8.68775 2.31275 9.01873 2.56398 9.25978C2.81521 9.50084 3.15191 9.63222 3.5 9.62502H3.5875C3.71037 10.2321 3.96122 10.806 4.32333 11.3085C4.68544 11.811 5.1505 12.2306 5.6875 12.5392V13.7082L1.78369 15.3353C1.38462 15.5007 1.04365 15.7809 0.803995 16.1404C0.56434 16.4998 0.436788 16.9223 0.437503 17.3543V23.1875C0.437503 23.3036 0.483597 23.4148 0.565644 23.4969C0.647691 23.5789 0.758971 23.625 0.875003 23.625H3.9375V27.125C3.9375 27.2411 3.9836 27.3523 4.06564 27.4344C4.14769 27.5164 4.25897 27.5625 4.375 27.5625H23.625C23.741 27.5625 23.8523 27.5164 23.9344 27.4344C24.0164 27.3523 24.0625 27.2411 24.0625 27.125V23.625H27.125C27.241 23.625 27.3523 23.5789 27.4344 23.4969C27.5164 23.4148 27.5625 23.3036 27.5625 23.1875V17.3543C27.5632 16.9223 27.4357 16.4998 27.196 16.1404C26.9564 15.7809 26.6154 15.5007 26.2163 15.3353ZM15.4757 6.44309L16.6968 7.00002C17.3301 7.28855 17.8251 7.81388 18.0755 8.46326C18.3259 9.11264 18.3117 9.8343 18.0359 10.4733L17.9047 10.773L17.4563 9.86696C17.4277 9.80926 17.3867 9.75858 17.3362 9.71854C17.2858 9.67851 17.2272 9.6501 17.1645 9.63535C17.1018 9.62059 17.0366 9.61986 16.9736 9.6332C16.9106 9.64655 16.8513 9.67363 16.8 9.71252L16.1 10.2375C15.4942 10.6919 14.7573 10.9375 14 10.9375C13.2427 10.9375 12.5058 10.6919 11.9 10.2375L11.2 9.71252C11.1489 9.67384 11.0899 9.64699 11.0272 9.6339C10.9645 9.62081 10.8996 9.62181 10.8373 9.63684C10.7748 9.65148 10.7164 9.67969 10.666 9.71946C10.6157 9.75922 10.5747 9.80958 10.5459 9.86696L10.0625 10.8373L9.70113 10.115C9.56016 9.83303 9.49358 9.51969 9.50772 9.20474C9.52186 8.88979 9.61624 8.58368 9.78191 8.31545C9.94758 8.04722 10.179 7.82578 10.4543 7.67213C10.7296 7.51848 11.0396 7.43772 11.3549 7.43752C11.6919 7.4372 12.0238 7.52024 12.3209 7.67924C12.6181 7.83824 12.8713 8.06827 13.0581 8.34884L13.1954 8.55534L13.9234 8.06971L13.7861 7.86365C13.3972 7.28103 12.8115 6.85796 12.1363 6.6719C12.6325 6.36563 13.1959 6.18475 13.7777 6.14489C14.3595 6.10502 14.9423 6.20737 15.4757 6.44309ZM18.375 12.6875H18.8125C18.9285 12.6875 19.0398 12.7336 19.1219 12.8157C19.2039 12.8977 19.25 13.009 19.25 13.125C19.25 13.2411 19.2039 13.3523 19.1219 13.4344C19.0398 13.5164 18.9285 13.5625 18.8125 13.5625H18.375V12.6875ZM12.6875 17.7358C13.5418 18.0048 14.4582 18.0048 15.3125 17.7358V18.6314L14 19.9439L12.6875 18.6314V17.7358ZM14 17.0625C13.0721 17.0615 12.1824 16.6924 11.5263 16.0362C10.8701 15.3801 10.501 14.4905 10.5 13.5625V11.9158L11.0941 10.7271L11.375 10.9375C12.1323 11.5055 13.0534 11.8125 14 11.8125C14.9466 11.8125 15.8677 11.5055 16.625 10.9375L16.9059 10.7271L17.5 11.9158V13.5625C17.499 14.4905 17.1299 15.3801 16.4737 16.0362C15.8176 16.6924 14.9279 17.0615 14 17.0625ZM9.62501 13.5625H9.18751C9.07147 13.5625 8.96019 13.5164 8.87815 13.4344C8.7961 13.3523 8.75001 13.2411 8.75001 13.125C8.75001 13.009 8.7961 12.8977 8.87815 12.8157C8.96019 12.7336 9.07147 12.6875 9.18751 12.6875H9.62501V13.5625ZM3.9375 22.33V22.75H1.3125V17.3543C1.31234 17.0953 1.38899 16.8421 1.53274 16.6266C1.67649 16.4111 1.8809 16.2431 2.12013 16.1438L6.29344 14.4051C6.37334 14.3718 6.44156 14.3155 6.48945 14.2434C6.53735 14.1713 6.56277 14.0866 6.5625 14V12.278C6.56019 12.1951 6.5354 12.1144 6.49079 12.0445C6.44617 11.9747 6.3834 11.9182 6.30919 11.8812C5.78618 11.6211 5.33693 11.2336 5.0027 10.7546C4.66848 10.2755 4.46001 9.72007 4.39644 9.1394C4.38459 9.03235 4.33367 8.93343 4.25343 8.86158C4.17319 8.78974 4.06927 8.75002 3.96157 8.75002H3.5C3.38397 8.75002 3.27269 8.70393 3.19064 8.62188C3.1086 8.53984 3.0625 8.42856 3.0625 8.31252C3.0625 8.19649 3.1086 8.08521 3.19064 8.00316C3.27269 7.92112 3.38397 7.87502 3.5 7.87502H3.9375C3.99522 7.87503 4.05236 7.86361 4.10564 7.84143C4.15892 7.81925 4.20728 7.78675 4.24795 7.7458C4.28862 7.70485 4.32078 7.65626 4.34258 7.60283C4.36439 7.54939 4.37541 7.49217 4.375 7.43446L4.37194 6.99696C4.37153 6.93013 4.35582 6.86428 4.326 6.80446L3.57482 5.30252C3.44898 5.05036 3.38243 4.77279 3.38024 4.49098C3.37805 4.20918 3.44027 3.9306 3.56217 3.67651C3.68406 3.42242 3.8624 3.19955 4.08357 3.02489C4.30474 2.85024 4.56289 2.72844 4.83832 2.66877C4.90023 2.65506 4.95854 2.62837 5.00938 2.59046L5.76188 2.02171C6.2725 1.64641 6.87324 1.41273 7.50324 1.34435C8.13325 1.27597 8.77013 1.37532 9.34938 1.63234L10.5718 2.18752C11.2051 2.47605 11.7001 3.00138 11.9505 3.65076C12.2009 4.30014 12.1867 5.0218 11.9109 5.66084L11.8401 5.8249C11.6739 5.91688 11.5142 6.01993 11.3619 6.13334L10.6719 6.65002C10.2785 6.75111 9.9126 6.93901 9.6012 7.19993C9.28979 7.46084 9.04076 7.78816 8.87235 8.15788C8.70394 8.52759 8.62043 8.93031 8.62795 9.3365C8.63548 9.7427 8.73384 10.1421 8.91582 10.5053L9.57032 11.8125H9.18751C8.83941 11.8125 8.50557 11.9508 8.25943 12.1969C8.01329 12.4431 7.87501 12.7769 7.87501 13.125C7.87501 13.4731 8.01329 13.807 8.25943 14.0531C8.50557 14.2992 8.83941 14.4375 9.18751 14.4375H9.71251C9.83781 15.0429 10.0897 15.6149 10.4516 16.1161C10.8135 16.6173 11.2773 17.0363 11.8125 17.3456V18.48L5.53963 20.2226C5.07949 20.3514 4.67401 20.627 4.38483 21.0074C4.09565 21.3878 3.93858 21.8522 3.9375 22.33ZM23.1875 26.6875H20.5625V23.1875H19.6875V26.6875H8.31251V23.1875H7.43751V26.6875H4.8125V22.33C4.81314 22.0432 4.90753 21.7644 5.08129 21.5361C5.25505 21.3078 5.49866 21.1426 5.775 21.0657L12.1227 19.3025L13.692 20.8718C13.774 20.9539 13.8853 20.9999 14.0013 20.9999C14.1173 20.9999 14.2286 20.9539 14.3106 20.8718L15.8799 19.3025L22.225 21.0657C22.5014 21.1426 22.745 21.3078 22.9187 21.5361C23.0925 21.7644 23.1869 22.0432 23.1875 22.33V26.6875ZM26.6875 22.75H24.0625V22.33C24.0614 21.8522 23.9044 21.3878 23.6152 21.0074C23.326 20.627 22.9205 20.3514 22.4604 20.2226L16.1875 18.48V17.3456C16.7227 17.0363 17.1865 16.6173 17.5484 16.1161C17.9103 15.6149 18.1622 15.0429 18.2875 14.4375H18.8125C19.1606 14.4375 19.4944 14.2992 19.7406 14.0531C19.9867 13.807 20.125 13.4731 20.125 13.125C20.125 12.7769 19.9867 12.4431 19.7406 12.1969C19.4944 11.9508 19.1606 11.8125 18.8125 11.8125H18.4109L18.8396 10.819C19.206 9.96958 19.2247 9.01041 18.8918 8.14737C18.5589 7.28434 17.9009 6.58622 17.059 6.2029L16.044 5.74046L15.8253 5.30296C15.6993 5.05081 15.6327 4.77322 15.6304 4.49139C15.6282 4.20956 15.6904 3.93094 15.8122 3.6768C15.9341 3.42266 16.1124 3.19973 16.3335 3.02503C16.5547 2.85033 16.8129 2.72847 17.0883 2.66877C17.1502 2.65506 17.2085 2.62837 17.2594 2.59046L18.0119 2.02171C18.5225 1.64641 19.1232 1.41273 19.7532 1.34435C20.3833 1.27597 21.0201 1.37532 21.5994 1.63234L22.8218 2.18752C23.4551 2.47605 23.9501 3.00138 24.2005 3.65076C24.4509 4.30014 24.4367 5.0218 24.1609 5.66084L23.6578 6.82502C23.634 6.88027 23.6217 6.93984 23.6219 7.00002L23.625 7.43752C23.625 7.55356 23.6711 7.66484 23.7532 7.74688C23.8352 7.82893 23.9465 7.87502 24.0625 7.87502H24.5C24.616 7.87502 24.7273 7.92112 24.8094 8.00316C24.8914 8.08521 24.9375 8.19649 24.9375 8.31252C24.9375 8.42856 24.8914 8.53984 24.8094 8.62188C24.7273 8.70393 24.616 8.75002 24.5 8.75002H24.0384C23.9307 8.75002 23.8268 8.78974 23.7466 8.86158C23.6663 8.93343 23.6154 9.03235 23.6036 9.1394C23.5398 9.72228 23.3299 10.2796 22.9934 10.7598C22.6569 11.24 22.2047 11.6275 21.6786 11.8865C21.6057 11.9227 21.5443 11.9785 21.5014 12.0477C21.4586 12.1169 21.4358 12.1966 21.4358 12.278V14C21.4358 14.0864 21.4613 14.1708 21.5092 14.2427C21.5571 14.3145 21.6251 14.3706 21.7048 14.4038L25.8799 16.1438C26.1191 16.2431 26.3235 16.4111 26.4673 16.6266C26.611 16.8421 26.6877 17.0953 26.6875 17.3543V22.75Z" fill="white"/>
</g>
<defs>
<clipPath id="clip0_3_551">
<rect width="28" height="28" fill="white"/>
</clipPath>
</defs>
</svg>
