<svg width="29" height="29" viewBox="0 0 29 29" fill="none" xmlns="http://www.w3.org/2000/svg">
<g clip-path="url(#clip0_3_486)">
<path d="M27.7143 22.3051L23.1547 12.5685C23.0527 12.3533 22.8035 12.2627 22.5883 12.3646C22.373 12.4666 22.2824 12.7158 22.3844 12.931L26.9439 22.6676C27.1479 23.1037 26.9609 23.6248 26.5248 23.8287L17.7852 27.9238C17.349 28.1277 16.8279 27.9408 16.624 27.5047L14.9871 24.0156L19.2408 13.7523C19.4221 13.3105 19.4164 12.8064 19.2125 12.3703L16.8846 7.34627L19.8979 8.29784C20.1301 8.37147 20.3227 8.54139 20.4246 8.76229L21.5404 11.1469C21.6141 11.2998 21.767 11.3904 21.9256 11.3904C21.9879 11.3904 22.0445 11.3791 22.1068 11.3508C22.3221 11.2488 22.4127 10.9996 22.3107 10.7844L21.1949 8.39979C20.991 7.96366 20.6115 7.62948 20.1527 7.48788L16.5164 6.33807C17.2641 5.24491 18.057 3.77792 18.3289 3.12088C19.0426 1.39901 18.4648 0.447447 17.6889 0.124596C16.9129 -0.198256 15.8311 0.0736193 15.1174 1.78983C14.8115 2.53182 14.5283 4.14042 14.3301 5.52245C14.0922 5.53944 13.8543 5.58475 13.6221 5.67538L8.12227 7.77674C7.68047 7.94667 7.32363 8.29217 7.14805 8.72831L1.25742 22.9224C1.08184 23.3473 1.08184 23.8174 1.25742 24.2422C1.43301 24.667 1.76719 25.0012 2.19199 25.1767L3.91387 25.8848C4.1291 25.9754 4.37832 25.8734 4.46895 25.6525C4.55957 25.4373 4.45762 25.1881 4.23672 25.0974L2.51484 24.3838C2.29961 24.2931 2.12969 24.1289 2.04473 23.9137C1.95977 23.6984 1.9541 23.4605 2.04473 23.2453L7.92969 9.04549C8.02031 8.8246 8.20156 8.64901 8.42246 8.56405L13.9223 6.46268C14.0186 6.4287 14.1148 6.40038 14.2111 6.38338C14.1602 6.77987 14.1148 7.13104 14.0865 7.39159C13.9053 7.40292 13.7297 7.44823 13.5598 7.52752C13.2143 7.69178 12.948 7.98065 12.8178 8.33749C12.6875 8.69999 12.7045 9.08514 12.8687 9.43631C13.1123 9.95741 13.6334 10.2633 14.1715 10.2633C14.3754 10.2633 14.5793 10.218 14.7775 10.1273C15.123 9.96307 15.3893 9.6742 15.5195 9.31737C15.6498 8.95487 15.6328 8.56971 15.4686 8.21854C15.3496 7.95799 15.157 7.74842 14.9191 7.60116C14.9531 7.32928 14.9984 6.9328 15.0607 6.46835C15.4289 6.60995 15.7404 6.89315 15.9217 7.27264L18.4422 12.7215C18.5441 12.9424 18.5498 13.1973 18.4592 13.4238L12.5742 27.6123C12.4836 27.8275 12.3193 27.9974 12.1041 28.0824C11.8889 28.173 11.651 28.173 11.4357 28.0824L6.17383 25.9074C5.95859 25.8168 5.70937 25.9187 5.61875 26.1396C5.52812 26.3549 5.63008 26.6041 5.85098 26.6947L11.1072 28.8754C11.3225 28.966 11.5434 29.0056 11.7643 29.0056C12.4383 29.0056 13.084 28.6035 13.3559 27.9408L14.5453 25.0748L15.848 27.8615C16.1426 28.4846 16.76 28.8527 17.4113 28.8527C17.6549 28.8527 17.9041 28.8017 18.142 28.6885L26.8816 24.5933C27.7426 24.1912 28.1164 23.166 27.7143 22.3051ZM14.7209 9.0285C14.6699 9.17577 14.5623 9.29471 14.4207 9.35702C14.1262 9.49295 13.7807 9.36835 13.6447 9.07381C13.5768 8.93221 13.5711 8.77362 13.6221 8.62635C13.673 8.47909 13.7807 8.36014 13.9223 8.29784C14.0016 8.25819 14.0865 8.2412 14.1715 8.2412C14.2395 8.2412 14.3074 8.25253 14.3697 8.27518C14.517 8.32616 14.6359 8.43377 14.6982 8.57538C14.7662 8.72264 14.7719 8.88124 14.7209 9.0285ZM15.7914 5.89061C15.5988 5.77167 15.3949 5.67538 15.1797 5.61307C15.3723 4.28768 15.6328 2.76971 15.9104 2.11268C16.1029 1.64823 16.6297 0.600377 17.3717 0.906236C18.1137 1.2121 17.7455 2.32792 17.5529 2.79237C17.2867 3.42108 16.5164 4.84276 15.7914 5.89061Z" fill="white"/>
<path d="M8.74529 14.3244C9.66853 13.8373 10.722 13.7297 11.7189 14.0356C13.3728 14.5397 14.483 16.0406 14.483 17.7738C14.483 18.0061 14.6756 18.1986 14.9078 18.1986C15.14 18.1986 15.3326 18.0061 15.3326 17.7738C15.3326 16.777 15.0097 15.7801 14.4207 14.9701C13.809 14.1318 12.9594 13.5258 11.9681 13.2256C9.45896 12.461 6.79685 13.877 6.0322 16.3805C5.66404 17.5926 5.78865 18.8783 6.38337 19.9998C6.9781 21.1213 7.97498 21.9426 9.19275 22.3108C9.64587 22.4467 10.116 22.5203 10.5804 22.5203C11.2431 22.5203 11.9058 22.3787 12.5232 22.1068C13.5597 21.6424 14.398 20.8211 14.8795 19.8016C14.9814 19.592 14.8908 19.3371 14.6756 19.2352C14.466 19.1332 14.2111 19.2238 14.1092 19.4391C13.2879 21.1779 11.2828 22.0672 9.44197 21.5065C8.44509 21.2006 7.6238 20.5266 7.13669 19.609C6.64959 18.6858 6.54197 17.6322 6.84783 16.6354C7.15369 15.6328 7.82771 14.8115 8.74529 14.3244Z" fill="white"/>
<path d="M9.94609 18.5895L9.85547 18.9123L11.0902 19.2578L10.96 19.7336L9.7252 19.3881L9.58359 19.9035L8.65469 19.643L8.79629 19.1276L8.24121 18.9746L8.37148 18.4988L8.92656 18.6518L9.76484 15.6385L11.498 16.1199C12.5686 16.4145 13.1123 17.0545 12.8574 17.9494C12.6082 18.8387 11.8152 19.1049 10.7447 18.8104L9.94609 18.5895ZM11.2828 16.8733L10.4898 16.6524L10.15 17.8645L10.943 18.0854C11.4584 18.227 11.8096 18.091 11.9172 17.7002C12.0305 17.3094 11.7926 17.0205 11.2828 16.8733Z" fill="white"/>
<path d="M24.8992 22.2824L22.1805 16.5051C22.0785 16.2955 21.8293 16.1992 21.6141 16.3012C21.4045 16.4031 21.3082 16.6523 21.4102 16.8676L24.1289 22.6449C24.2025 22.7978 24.3555 22.8885 24.5141 22.8885C24.5764 22.8885 24.6387 22.8771 24.6953 22.8488C24.9049 22.7469 24.9955 22.492 24.8992 22.2824Z" fill="white"/>
<path d="M22.9961 23.2963L20.2773 17.5189C20.1754 17.3093 19.9262 17.2131 19.7109 17.315C19.5014 17.417 19.4051 17.6662 19.507 17.8814L22.2258 23.6588C22.2994 23.8117 22.4523 23.9023 22.6109 23.9023C22.6732 23.9023 22.7355 23.891 22.7922 23.8627C23.0074 23.7607 23.098 23.5115 22.9961 23.2963Z" fill="white"/>
</g>
<defs>
<clipPath id="clip0_3_486">
<rect width="29" height="29" fill="white"/>
</clipPath>
</defs>
</svg>
