<svg width="28" height="28" viewBox="0 0 28 28" fill="none" xmlns="http://www.w3.org/2000/svg">
<g clip-path="url(#clip0_3_553)">
<path d="M18.8267 12.5518C17.7603 12.5518 16.8957 13.4164 16.8957 14.4828C16.8957 15.5492 17.7603 16.4138 18.8267 16.4138C19.8931 16.4138 20.7578 15.5492 20.7578 14.4828C20.7578 13.4164 19.8931 12.5518 18.8267 12.5518ZM18.8267 15.4483C18.2935 15.4483 17.8612 15.016 17.8612 14.4828C17.8612 13.9496 18.2935 13.5173 18.8267 13.5173C19.3599 13.5173 19.7922 13.9496 19.7922 14.4828C19.7922 15.016 19.3599 15.4483 18.8267 15.4483Z" fill="white"/>
<path d="M27.0334 11.5862H26.0679C25.7244 11.5871 25.4076 11.7712 25.2365 12.069H24.1369C24.1369 11.5358 23.7045 11.1034 23.1713 11.1034H14.9644V9.84399C16.4259 9.26387 17.3836 7.84836 17.3782 6.27586V0.965517C17.3782 0.432314 16.9459 0 16.4127 0H10.6196C10.0864 0 9.65408 0.432314 9.65408 0.965517V6.27586C9.64866 7.8486 10.6062 9.26435 12.0679 9.84446V11.1034H8.55443C8.3833 10.8057 8.06649 10.6216 7.72304 10.6207H6.75752C6.22432 10.6207 5.79201 11.053 5.79201 11.5862V11.7705L4.12804 12.6024C3.96421 12.6842 3.86097 12.8516 3.86097 13.0345V14C3.86003 14.1839 3.96351 14.3524 4.12804 14.4344L5.79201 15.2639V15.4483C5.79201 15.9815 6.22432 16.4138 6.75752 16.4138H7.72304C8.06649 16.4128 8.3833 16.2288 8.55443 15.931H13.0334V17.3793C13.0334 17.5408 13.114 17.6914 13.2481 17.781L14.4817 18.6032V20.0175L13.2481 20.8383C13.0263 20.9863 12.9664 21.2859 13.1145 21.5077C13.2625 21.7298 13.5624 21.7897 13.7842 21.6416L15.2324 20.6761C15.3661 20.5868 15.4467 20.4366 15.4472 20.2759V19.7931H17.3667L18.2714 23.8647C18.3676 24.3072 18.7598 24.6223 19.2126 24.6207H20.7575C20.7575 24.8873 20.5414 25.1034 20.2748 25.1034H12.5506C11.7508 25.1034 11.1024 25.7519 11.1024 26.5517C11.1024 27.3515 11.7508 28 12.5506 28H26.5506C26.8173 28 27.0334 27.7838 27.0334 27.5172C27.0334 27.2506 26.8173 27.0345 26.5506 27.0345H12.5506C12.284 27.0345 12.0679 26.8183 12.0679 26.5517C12.0679 26.2851 12.284 26.069 12.5506 26.069H20.2748C21.0746 26.069 21.7231 25.4205 21.7231 24.6207H23.0521C23.3451 24.6207 23.6223 24.488 23.8054 24.2593C23.9888 24.0309 24.0586 23.7315 23.9949 23.4456L22.6134 17.2287C22.4884 16.6684 22.83 16.1097 23.3856 15.9652C23.8212 15.8594 24.13 15.4726 24.1369 15.0244V14.9655H25.2365C25.4076 15.2632 25.7244 15.4473 26.0679 15.4483H27.0334C27.5666 15.4483 27.9989 15.016 27.9989 14.4828V12.5517C27.9989 12.0185 27.5666 11.5862 27.0334 11.5862ZM10.6196 0.965517H16.4127V4.10345L16.2031 4.25997C15.4458 4.81368 14.4246 4.84126 13.6383 4.32927C13.5126 4.24653 13.3813 4.17251 13.2453 4.10816C13.2005 4.08695 13.1536 4.07163 13.1076 4.0523C13.0159 4.01364 12.9243 3.97639 12.8302 3.94646C12.7741 3.92925 12.7173 3.91652 12.6607 3.90214C12.5742 3.87998 12.4875 3.85924 12.3995 3.84463C12.3387 3.83449 12.2779 3.82789 12.2166 3.82105C12.131 3.81186 12.0457 3.80502 11.9597 3.80267C11.9293 3.80267 11.8993 3.79583 11.8694 3.79583C11.8211 3.79583 11.773 3.80125 11.7247 3.80314C11.6869 3.80314 11.6502 3.80597 11.6132 3.80903C11.4915 3.81799 11.3706 3.83425 11.2511 3.85735H11.2391C11.1148 3.88258 10.9925 3.91558 10.8725 3.95612C10.8374 3.96791 10.803 3.98182 10.7679 3.99478C10.7195 4.0127 10.6684 4.02825 10.6196 4.04947V0.965517ZM10.6196 6.27586V5.1246L10.8789 4.99424C11.5922 4.63948 12.4406 4.69252 13.1043 5.13308C13.2279 5.21464 13.3568 5.28724 13.4905 5.35042C13.9216 5.55903 14.3942 5.66746 14.8732 5.6677C14.9611 5.6677 15.046 5.65403 15.1325 5.64743C15.1629 5.64483 15.1933 5.64295 15.2233 5.64012C15.3317 5.62833 15.4394 5.61113 15.5462 5.5885C15.6025 5.57671 15.6577 5.56233 15.7131 5.54748C15.7977 5.52462 15.8821 5.50152 15.9646 5.47158C16.0473 5.44164 16.1395 5.40015 16.2253 5.36008C16.2765 5.33604 16.3297 5.31577 16.3799 5.28866C16.3905 5.28277 16.4026 5.27899 16.4132 5.2731V6.27586C16.4198 7.56008 15.5747 8.69296 14.3421 9.05314C13.9381 9.17194 13.5131 9.20259 13.0961 9.14248C11.673 8.93528 10.6179 7.714 10.6196 6.27586ZM13.0334 10.108C13.354 10.1481 13.6783 10.1481 13.9989 10.108V11.1034H13.0334V10.108ZM4.82649 13.7016V13.3329L5.79201 12.8501V14.1843L4.82649 13.7016ZM6.75752 15.4483V11.5862H7.72304V15.4483H6.75752ZM15.2324 17.9432L13.9989 17.121V16.043C15.4493 16.3702 16.6279 17.4232 17.1161 18.8276H15.4472V18.3448C15.4472 18.1834 15.3666 18.0327 15.2324 17.9432ZM22.0691 15.726C21.6823 16.2059 21.5354 16.8362 21.671 17.4378L23.0521 23.6552H19.2126L18.2056 19.1239C17.7318 16.9428 15.9351 15.2967 13.7208 15.0153C13.6571 14.9837 13.5873 14.9667 13.5162 14.9655C13.4869 14.9686 13.4582 14.9745 13.4301 14.983C13.2955 14.9728 13.1604 14.9655 13.0233 14.9655H8.68856V14H13.0334C13.3 14 13.5162 13.7838 13.5162 13.5172C13.5162 13.2506 13.3 13.0345 13.0334 13.0345H8.68856V12.069H23.1713L23.1423 15.0318C22.7195 15.1421 22.3432 15.3856 22.0691 15.726ZM24.1369 13.0345H25.1024V14H24.1369V13.0345ZM27.0334 14.4828H26.0679V12.5517H27.0334V14.4828Z" fill="white"/>
<path d="M2.89655 13.5172C2.89655 13.2506 2.68039 13.0344 2.41379 13.0344H0.482759C0.216157 13.0344 0 13.2506 0 13.5172C0 13.7838 0.216157 13.9999 0.482759 13.9999H2.41379C2.68039 13.9999 2.89655 13.7838 2.89655 13.5172Z" fill="white"/>
<path d="M3.13746 11.168L1.46525 10.2025C1.23447 10.0714 0.941235 10.1511 0.808524 10.3809C0.675812 10.6108 0.7536 10.9045 0.982487 11.0388L2.6547 12.0044C2.80415 12.0918 2.98919 12.0928 3.13935 12.0065C3.2895 11.9202 3.3819 11.7599 3.38167 11.5867C3.3812 11.4134 3.28809 11.2538 3.13746 11.168Z" fill="white"/>
<path d="M2.65471 15.0301L0.982491 15.9956C0.831865 16.0814 0.738754 16.241 0.738283 16.4142C0.737812 16.5875 0.83045 16.7478 0.980605 16.8341C1.13076 16.9203 1.3158 16.9194 1.46525 16.8319L3.13746 15.8664C3.28809 15.7806 3.3812 15.621 3.38167 15.4478C3.38191 15.2745 3.28951 15.1142 3.13935 15.028C2.9892 14.9417 2.80415 14.9426 2.65471 15.0301Z" fill="white"/>
</g>
<defs>
<clipPath id="clip0_3_553">
<rect width="28" height="28" fill="white"/>
</clipPath>
</defs>
</svg>
