<svg width="24" height="24" viewBox="0 0 24 24" fill="none" xmlns="http://www.w3.org/2000/svg">
<path d="M23.8626 0.137344C23.7755 0.0501094 23.6545 0 23.5312 0H6.65625C6.53297 0 6.41203 0.0501094 6.32484 0.137344C6.23766 0.224531 6.1875 0.345469 6.1875 0.46875V13.4062H0.46875C0.209859 13.4062 0 13.6162 0 13.875V21.6562C0 21.9151 0.209859 22.125 0.46875 22.125H6.1875V23.5312C6.1875 23.6545 6.23766 23.7755 6.32484 23.8626C6.41203 23.9498 6.53297 24 6.65625 24H23.5312C23.6545 24 23.7755 23.9498 23.8626 23.8626C23.9498 23.7755 24 23.6545 24 23.5312V13.4531C24 13.1948 23.7895 12.9844 23.5312 12.9844C23.273 12.9844 23.0625 13.1948 23.0625 13.4531V23.0625H7.125V22.125H15.9375C16.1963 22.125 16.4062 21.9151 16.4062 21.6562V20.0589C17.0023 20.6679 17.8326 21.0469 18.75 21.0469C20.5593 21.0469 22.0312 19.5749 22.0312 17.7656C22.0312 15.9563 20.5593 14.4844 18.75 14.4844C17.8326 14.4844 17.0023 14.8633 16.4062 15.4724V13.875C16.4062 13.6162 16.1963 13.4062 15.9375 13.4062H7.125V0.9375H23.0625V9.23438C23.0625 9.49266 23.273 9.70312 23.5312 9.70312C23.7895 9.70312 24 9.49266 24 9.23438V0.46875C24 0.345469 23.9498 0.224531 23.8626 0.137344ZM5.71875 17.2969H4.6875C4.42861 17.2969 4.21875 17.5068 4.21875 17.7656C4.21875 18.0245 4.42861 18.2344 4.6875 18.2344H5.71875V19.3125H3.6697C3.52823 18.9135 3.2115 18.5968 2.8125 18.4553V17.0759C3.2115 16.9344 3.52823 16.6178 3.6697 16.2188H5.71875V17.2969ZM5.71875 15.2812H3.28125C3.02236 15.2812 2.8125 15.4912 2.8125 15.75C2.8125 16.0085 2.60222 16.2188 2.34375 16.2188C2.08486 16.2188 1.875 16.4287 1.875 16.6875V18.8438C1.875 19.1026 2.08486 19.3125 2.34375 19.3125C2.60222 19.3125 2.8125 19.5228 2.8125 19.7812C2.8125 20.0401 3.02236 20.25 3.28125 20.25H5.71875V21.1875H0.9375V14.3438H5.71875V15.2812ZM18.75 15.4219C20.0423 15.4219 21.0938 16.4733 21.0938 17.7656C21.0938 19.058 20.0423 20.1094 18.75 20.1094C17.4577 20.1094 16.4062 19.058 16.4062 17.7656C16.4062 16.4733 17.4577 15.4219 18.75 15.4219ZM10.6406 18.2344H11.7188C11.9776 18.2344 12.1875 18.0245 12.1875 17.7656C12.1875 17.5068 11.9776 17.2969 11.7188 17.2969H10.6406V16.2188H12.7366C12.8781 16.6178 13.1947 16.9345 13.5938 17.0759V18.4553C13.1947 18.5968 12.878 18.9135 12.7366 19.3125H10.6406V18.2344ZM10.6406 20.25H13.125C13.3838 20.25 13.5938 20.0401 13.5938 19.7812C13.5938 19.5228 13.804 19.3125 14.0625 19.3125C14.3213 19.3125 14.5312 19.1026 14.5312 18.8438V16.6875C14.5312 16.4287 14.3213 16.2188 14.0625 16.2188C13.804 16.2188 13.5938 16.0085 13.5938 15.75C13.5938 15.4912 13.3838 15.2812 13.125 15.2812H10.6406V14.3438H15.4688V21.1875H10.6406V20.25ZM9.70312 14.3438V21.1875H6.65625V14.3438H9.70312Z" fill="white"/>
<path d="M23.5312 11.8125C23.7901 11.8125 24 11.6026 24 11.3438C24 11.0849 23.7901 10.875 23.5312 10.875C23.2724 10.875 23.0625 11.0849 23.0625 11.3438C23.0625 11.6026 23.2724 11.8125 23.5312 11.8125Z" fill="white"/>
<path d="M21.1875 11.25H9C8.74111 11.25 8.53125 11.4599 8.53125 11.7188C8.53125 11.9776 8.74111 12.1875 9 12.1875H21.1875C21.4463 12.1875 21.6562 11.9776 21.6562 11.7188C21.6562 11.4599 21.4463 11.25 21.1875 11.25Z" fill="white"/>
<path d="M21.1875 9.375H9C8.74111 9.375 8.53125 9.58491 8.53125 9.84375C8.53125 10.1026 8.74111 10.3125 9 10.3125H21.1875C21.4463 10.3125 21.6562 10.1026 21.6562 9.84375C21.6562 9.58491 21.4463 9.375 21.1875 9.375Z" fill="white"/>
<path d="M21.1875 7.5H10.4062C10.1474 7.5 9.9375 7.70991 9.9375 7.96875C9.9375 8.22759 10.1474 8.4375 10.4062 8.4375H21.1875C21.4463 8.4375 21.6562 8.22759 21.6562 7.96875C21.6562 7.70991 21.4463 7.5 21.1875 7.5Z" fill="white"/>
<path d="M15.7031 4.92188C15.7031 5.18072 15.913 5.39062 16.1719 5.39062H19.7812C20.0401 5.39062 20.25 5.18072 20.25 4.92188C20.25 4.66303 20.0401 4.45312 19.7812 4.45312H16.1719C15.913 4.45312 15.7031 4.66303 15.7031 4.92188Z" fill="white"/>
<path d="M9.9375 4.92188C9.9375 5.18072 10.1474 5.39062 10.4062 5.39062H14.0625C14.3213 5.39062 14.5312 5.18072 14.5312 4.92188C14.5312 4.66303 14.3213 4.45312 14.0625 4.45312H10.4062C10.1474 4.45312 9.9375 4.66303 9.9375 4.92188Z" fill="white"/>
<path d="M17.4375 2.57812H12.75C12.4912 2.57812 12.2812 2.78803 12.2812 3.04688C12.2812 3.30572 12.4912 3.51562 12.75 3.51562H17.4375C17.6963 3.51562 17.9062 3.30572 17.9062 3.04688C17.9062 2.78803 17.6963 2.57812 17.4375 2.57812Z" fill="white"/>
<path d="M18.75 19.1719C19.5254 19.1719 20.1562 18.541 20.1562 17.7656C20.1562 16.9902 19.5254 16.3594 18.75 16.3594C17.9746 16.3594 17.3438 16.9902 17.3438 17.7656C17.3438 18.541 17.9746 19.1719 18.75 19.1719ZM18.75 17.2969C19.0085 17.2969 19.2188 17.5072 19.2188 17.7656C19.2188 18.0241 19.0085 18.2344 18.75 18.2344C18.4915 18.2344 18.2812 18.0241 18.2812 17.7656C18.2812 17.5072 18.4915 17.2969 18.75 17.2969Z" fill="white"/>
</svg>
