<svg width="17" height="21" viewBox="0 0 17 21" fill="none" xmlns="http://www.w3.org/2000/svg">
<path d="M13.2841 10.4454H14.4974C14.7716 10.4454 14.9948 10.193 14.9948 9.88291V8.51108C14.9948 8.20095 14.7716 7.94862 14.4974 7.94862H13.2841C13.0098 7.94862 12.7866 8.20095 12.7866 8.51108V9.88291C12.7866 10.193 13.0098 10.4454 13.2841 10.4454ZM13.2962 8.52479H14.4852V9.86919H13.2962V8.52479ZM13.2841 14.0945H14.4974C14.7716 14.0945 14.9948 13.8421 14.9948 13.532V12.1602C14.9948 11.85 14.7716 11.5977 14.4974 11.5977H13.2841C13.0098 11.5977 12.7866 11.85 12.7866 12.1602V13.532C12.7866 13.8421 13.0098 14.0945 13.2841 14.0945ZM13.2962 12.1739H14.4852V13.5183H13.2962V12.1739ZM9.8218 10.4454H11.0351C11.3094 10.4454 11.5325 10.193 11.5325 9.88291V8.51108C11.5325 8.20095 11.3094 7.94862 11.0351 7.94862H9.8218C9.54751 7.94862 9.32435 8.20095 9.32435 8.51108V9.88291C9.32435 10.193 9.54751 10.4454 9.8218 10.4454ZM9.83393 8.52479H11.0229V9.86919H9.83393V8.52479ZM4.11052 15.0757H2.89724C2.62296 15.0757 2.39979 15.328 2.39979 15.6382V17.01C2.39979 17.3201 2.62296 17.5725 2.89724 17.5725H4.11052C4.38481 17.5725 4.60797 17.3201 4.60797 17.01V15.6382C4.60797 15.328 4.38481 15.0757 4.11052 15.0757ZM4.09839 16.9963H2.90937V15.6519H4.09839V16.9963ZM4.11052 7.94862H2.89724C2.62296 7.94862 2.39979 8.20095 2.39979 8.51108V9.88291C2.39979 10.193 2.62296 10.4454 2.89724 10.4454H4.11052C4.38481 10.4454 4.60797 10.193 4.60797 9.88291V8.51108C4.60797 8.20091 4.38481 7.94862 4.11052 7.94862ZM4.09839 9.86919H2.90937V8.52479H4.09839V9.86919ZM9.8218 14.0089H11.0351C11.3094 14.0089 11.5325 13.7566 11.5325 13.4465V12.0746C11.5325 11.7645 11.3094 11.5122 11.0351 11.5122H9.8218C9.54751 11.5122 9.32435 11.7645 9.32435 12.0746V13.4465C9.32435 13.7566 9.54751 14.0089 9.8218 14.0089ZM9.83393 12.0883H11.0229V13.4327H9.83393V12.0883ZM15.2479 2.10317H14.1585V1.6627C14.1585 1.17964 13.811 0.786652 13.3837 0.786652H13.2667C12.8395 0.786652 12.492 1.17964 12.492 1.6627V2.10317H4.90264V1.6627C4.90264 1.17964 4.55507 0.786652 4.12784 0.786652H4.01084C3.58361 0.786652 3.23605 1.17964 3.23605 1.6627V2.10317H2.14674C1.44335 2.10317 0.871094 2.75021 0.871094 3.54552V19.0129C0.871094 19.8072 1.44257 20.4533 2.14504 20.4533H15.2496C15.9521 20.4533 16.5236 19.8072 16.5236 19.0129V3.54552C16.5235 2.75021 15.9513 2.10317 15.2479 2.10317ZM13.0015 1.6627C13.0015 1.49734 13.1205 1.36282 13.2668 1.36282H13.3838C13.53 1.36282 13.649 1.49734 13.649 1.6627V2.10317H13.0015V1.6627ZM3.74566 1.6627C3.74566 1.49734 3.86463 1.36282 4.01088 1.36282H4.12788C4.27413 1.36282 4.39309 1.49734 4.39309 1.6627V2.10317H3.74569V1.6627H3.74566ZM16.014 19.0129C16.014 19.4895 15.6711 19.8771 15.2496 19.8771H2.14501C1.72352 19.8771 1.38064 19.4895 1.38064 19.0129V19.0111C1.59412 19.193 1.85947 19.301 2.14674 19.301H12.477C12.8177 19.301 13.1381 19.1509 13.379 18.8785L16.014 15.8992V19.0129ZM13.119 18.3576C13.139 18.2644 13.1499 18.1672 13.1499 18.0671V16.1441C13.1499 15.7815 13.4108 15.4864 13.7316 15.4864H15.4323C15.5208 15.4864 15.6068 15.4742 15.6892 15.4516L13.119 18.3576ZM16.014 6.22011H5.15743C5.01672 6.22011 4.90264 6.34909 4.90264 6.50819C4.90264 6.66729 5.01672 6.79628 5.15743 6.79628H16.014V14.2526C16.014 14.6153 15.753 14.9103 15.4323 14.9103H13.7316C13.1298 14.9103 12.6403 15.4638 12.6403 16.1441V18.0672C12.6403 18.4298 12.3794 18.7248 12.0587 18.7248H2.14674C1.72433 18.7248 1.38067 18.3363 1.38067 17.8586V6.79628H4.13827C4.27898 6.79628 4.39306 6.66729 4.39306 6.50819C4.39306 6.34909 4.27898 6.22011 4.13827 6.22011H1.38064V3.54552C1.38064 3.06791 1.7243 2.67934 2.1467 2.67934H3.23605V3.52639C3.23605 4.00945 3.58361 4.40244 4.01084 4.40244C4.15155 4.40244 4.26563 4.27345 4.26563 4.11435C4.26563 3.95525 4.15155 3.82627 4.01084 3.82627C3.86459 3.82627 3.74562 3.69175 3.74562 3.52639V2.67934H12.492V3.52639C12.492 4.00945 12.8395 4.40244 13.2668 4.40244C13.4075 4.40244 13.5215 4.27345 13.5215 4.11435C13.5215 3.95525 13.4075 3.82627 13.2668 3.82627C13.1205 3.82627 13.0015 3.69175 13.0015 3.52639V2.67934H15.2479C15.6703 2.67934 16.014 3.06791 16.014 3.54552V6.22011ZM4.11052 11.5122H2.89724C2.62296 11.5122 2.39979 11.7645 2.39979 12.0746V13.4465C2.39979 13.7566 2.62296 14.0089 2.89724 14.0089H4.11052C4.38481 14.0089 4.60797 13.7566 4.60797 13.4465V12.0746C4.60797 11.7645 4.38481 11.5122 4.11052 11.5122ZM4.09839 13.4327H2.90937V12.0883H4.09839V13.4327ZM6.35952 10.4454H7.5728C7.84708 10.4454 8.07025 10.193 8.07025 9.88291V8.51108C8.07025 8.20095 7.84708 7.94862 7.5728 7.94862H6.35952C6.08523 7.94862 5.86207 8.20095 5.86207 8.51108V9.88291C5.86207 10.193 6.08523 10.4454 6.35952 10.4454ZM6.37165 8.52479H7.56067V9.86919H6.37165V8.52479ZM9.83362 16.9963C9.8273 16.8435 9.71578 16.7219 9.57911 16.7219C9.43839 16.7219 9.32432 16.8509 9.32432 17.01C9.32432 17.3201 9.54748 17.5725 9.82177 17.5725H11.035C11.3093 17.5725 11.5325 17.3201 11.5325 17.01V15.6382C11.5325 15.328 11.3093 15.0757 11.035 15.0757H9.82177C9.54748 15.0757 9.32432 15.328 9.32432 15.6382V16.0338C9.32432 16.1929 9.43839 16.3219 9.57911 16.3219C9.71982 16.3219 9.8339 16.1929 9.8339 16.0338V15.6519H11.0229V16.9963H9.83362ZM6.35952 14.0089H7.5728C7.84708 14.0089 8.07025 13.7566 8.07025 13.4465V12.0746C8.07025 11.7645 7.84708 11.5122 7.5728 11.5122H6.35952C6.08523 11.5122 5.86207 11.7645 5.86207 12.0746V13.4465C5.86207 13.7566 6.08523 14.0089 6.35952 14.0089ZM6.37165 12.0883H7.56067V13.4327H6.37165V12.0883ZM6.35952 17.5725H7.5728C7.84708 17.5725 8.07025 17.3201 8.07025 17.01V15.6382C8.07025 15.328 7.84708 15.0757 7.5728 15.0757H6.35952C6.08523 15.0757 5.86207 15.328 5.86207 15.6382V17.01C5.86207 17.3201 6.08523 17.5725 6.35952 17.5725ZM6.37165 15.6519H7.56067V16.9963H6.37165V15.6519Z" fill="#081D30"/>
</svg>
