<svg width="18" height="21" viewBox="0 0 18 21" fill="none" xmlns="http://www.w3.org/2000/svg">
<g clip-path="url(#clip0_3_690)">
<path d="M3.92847 15.4318H4.48949V16.0662H3.92847V15.4318Z" fill="#081D30"/>
<path d="M16.2493 3.21817L11.1543 0.912616C10.659 0.704781 10.1392 0.98494 9.95769 1.50097L9.60171 2.50484C9.5602 2.63105 9.53911 2.75851 9.53911 2.88442C9.53911 3.0935 9.59691 3.29622 9.69841 3.46751L8.87823 5.59945H8.5158L7.69617 3.46844C7.79822 3.29684 7.85602 3.09381 7.85602 2.88442C7.85602 2.75882 7.83493 2.63105 7.79096 2.49663L7.43785 1.50159C7.25568 0.984011 6.75916 0.693475 6.23415 0.915094L1.14639 3.21786C0.791773 3.37706 0.562622 3.75928 0.562622 4.19122C0.562622 4.31682 0.583716 4.44458 0.627683 4.57917L0.980929 5.57405C1.11406 5.95286 1.42348 6.20174 1.77919 6.22869L4.34259 12.8945H3.64829C3.18437 12.8945 2.80674 13.3214 2.80674 13.846C2.80674 14.1032 2.89564 14.3423 3.05192 14.5145C3.10411 14.5753 3.16383 14.6228 3.2267 14.6646C2.97316 14.9606 2.81524 15.3625 2.81524 15.8062C2.81524 15.9291 2.82674 16.0462 2.84989 16.1633L3.7039 20.5066H12.5656L13.7833 14.7684C14.8799 14.599 15.7104 13.5415 15.7104 12.2601C15.7104 11.1732 15.097 10.2217 14.2161 9.87061L15.6159 6.22869C15.9716 6.20174 16.2813 5.95286 16.4143 5.57498L16.7702 4.57127C16.8114 4.44458 16.8325 4.31713 16.8325 4.19122C16.8325 3.75928 16.6034 3.37706 16.2493 3.21817ZM9.69622 5.06468L10.5523 5.47292L10.7703 4.88844L9.92002 4.48268L10.1552 3.87218L15.0571 6.09039L14.7843 6.80062L11.2915 5.13856L11.0741 5.7235L14.5606 7.38231L14.2851 8.09874L10.9377 6.50652C10.9168 6.00289 10.5506 5.59945 10.1001 5.59945H9.49035L9.69622 5.06468ZM6.7393 13.4174C7.05296 12.8914 7.57523 12.5773 8.13653 12.5773C8.69784 12.5773 9.22024 12.8914 9.53377 13.4174C9.72087 13.7306 9.81963 14.0981 9.81963 14.4803C9.81963 14.8625 9.72087 15.2302 9.53377 15.5432C9.22024 16.0694 8.69784 16.3834 8.13653 16.3834C7.20829 16.3834 6.45344 15.5299 6.45344 14.4803C6.45344 14.0981 6.5522 13.7306 6.7393 13.4174ZM7.29499 11.9429C6.96653 11.9429 6.67588 11.7346 6.53535 11.3964C6.5233 11.3682 6.51768 11.3379 6.50809 11.3086H9.76744C9.65211 11.6787 9.34393 11.9429 8.97835 11.9429H7.29499ZM4.31986 11.2445L5.39987 10.7317C5.49492 10.9817 5.68367 11.1729 5.9146 11.2579C5.91994 11.2925 5.92501 11.3273 5.93227 11.3612L4.60763 11.9928L4.31986 11.2445ZM10.1001 6.2338C10.2548 6.2338 10.3807 6.37628 10.3807 6.55097V8.13684H7.85602C7.3921 8.13684 7.01447 8.56382 7.01447 9.08836C7.01447 9.3456 7.10337 9.58472 7.25965 9.75694C7.41703 9.93937 7.62851 10.0399 7.85602 10.0399H10.3807V10.3571C10.3807 10.5319 10.2548 10.6742 10.1001 10.6742H6.17293C6.01842 10.6742 5.89241 10.5319 5.89241 10.3571V8.75214C5.89241 8.60377 5.92241 8.45851 5.98048 8.32934L6.67314 6.76005C6.81559 6.44024 7.11159 6.2338 7.42689 6.2338H10.1001ZM11.2955 12.8945H9.88469C9.76977 12.7325 9.63924 12.589 9.49569 12.4653C9.88017 12.294 10.1764 11.9366 10.3044 11.4983L11.241 11.9439C11.2289 12.0482 11.2222 12.1532 11.2222 12.2601C11.2222 12.4771 11.2486 12.6886 11.2955 12.8945ZM10.3807 9.40554H7.85602C7.7811 9.40554 7.71206 9.37317 7.65632 9.30859C7.60413 9.25113 7.5755 9.17308 7.5755 9.08836C7.5755 8.91367 7.70152 8.77119 7.85602 8.77119H10.3807V9.40554ZM5.47972 8.04392C5.40603 8.20793 5.35891 8.38897 5.3407 8.57528L3.60953 9.39733L3.33408 8.6809L5.69463 7.55701L5.47972 8.04392ZM5.33138 9.26755V10.0767L4.09632 10.6632L3.8332 9.97902L5.33138 9.26755ZM10.2118 13.5288H11.5271C11.6558 13.7791 11.8197 14.0021 12.0139 14.1876L11.5905 15.4318H10.2118C10.3196 15.1315 10.3807 14.8111 10.3807 14.4803C10.3807 14.1495 10.3196 13.8292 10.2118 13.5288ZM11.3855 11.3245L10.7131 11.0047C10.8539 10.8344 10.9417 10.6076 10.9417 10.3571V10.2293L11.761 10.62C11.6028 10.83 11.4755 11.0673 11.3855 11.3245ZM12.2287 10.1545L10.9417 9.54074V8.73185L13.0958 9.75694C12.783 9.81501 12.4918 9.95455 12.2287 10.1545ZM13.7861 9.39733L10.9417 8.04361V7.19678L14.0616 8.68121L13.7861 9.39733ZM7.42689 5.59945C6.90147 5.59945 6.40879 5.94295 6.17128 6.47679L6.07924 6.68555L3.11027 8.09874L2.83482 7.38262L7.69919 5.06468L7.90505 5.59945H7.42689ZM1.50183 5.33849L1.15118 4.35042C1.13324 4.29591 1.12365 4.24077 1.12365 4.19122C1.12365 4.02055 1.21405 3.86986 1.35431 3.80683L6.43605 1.50732C6.65095 1.41718 6.84504 1.53241 6.91681 1.7373L7.26746 2.72522C7.2854 2.77973 7.29499 2.83502 7.29499 2.88442C7.29499 2.99965 7.25403 3.10682 7.17774 3.18735C7.14692 3.22065 7.10624 3.24992 7.06501 3.26881L6.34688 3.59233L6.55439 4.18146L7.24061 3.87249L7.47675 4.48655L2.61101 6.80124L2.33803 6.09116L5.99651 4.43514L5.78804 3.84648L1.97917 5.57002C1.95712 5.57978 1.93328 5.58706 1.9226 5.59C1.74591 5.61757 1.56744 5.52527 1.50183 5.33849ZM4.8313 12.5748L6.17238 11.9353C6.32839 12.1754 6.53754 12.3569 6.77861 12.4641C6.63465 12.5881 6.50371 12.7318 6.38838 12.8945H4.95416L4.8313 12.5748ZM12.1229 19.8723H4.15385L3.39722 16.025C3.38298 15.9533 3.37586 15.8816 3.37586 15.8062C3.37586 15.2502 3.77622 14.7975 4.26794 14.7975C4.62982 14.7975 4.95293 15.0408 5.09182 15.4176L6.26634 18.6036H7.90766C8.02381 18.9719 8.3324 19.2379 8.69756 19.2379C9.16148 19.2379 9.53911 18.8111 9.53911 18.2864C9.53911 18.2471 9.53295 18.2094 9.5287 18.1713L10.5061 17.6188L10.2551 17.0513L9.27996 17.6027C9.12875 17.4377 8.92398 17.3349 8.69756 17.3349C8.3324 17.3349 8.02381 17.601 7.90766 17.9692H6.64027L5.60998 15.1734C5.38384 14.5596 4.85733 14.1631 4.26822 14.1631H3.64829C3.57337 14.1631 3.50433 14.1308 3.44859 14.0662C3.3964 14.0087 3.36777 13.9307 3.36777 13.846C3.36777 13.6713 3.49379 13.5288 3.64829 13.5288H6.0613C5.95364 13.8292 5.89241 14.1495 5.89241 14.4803C5.89241 15.8794 6.89914 17.0177 8.13653 17.0177C8.82152 17.0177 9.46063 16.6638 9.88469 16.0662H11.9759L13.3239 12.1028C13.3572 12.0058 13.4374 11.9429 13.5281 11.9429C13.6486 11.9429 13.7468 12.054 13.7468 12.1935C13.7468 12.205 13.7457 12.2246 13.7407 12.2494L12.1229 19.8723ZM8.41705 18.2864C8.41705 18.1117 8.54306 17.9692 8.69756 17.9692C8.8522 17.9692 8.97808 18.1117 8.97808 18.2864C8.97808 18.4613 8.8522 18.6036 8.69756 18.6036C8.54306 18.6036 8.41705 18.4613 8.41705 18.2864ZM15.1494 12.2601C15.1494 13.132 14.6363 13.8644 13.9275 14.0874L14.2868 12.3942C14.3009 12.3251 14.3079 12.2576 14.3079 12.1904C14.3079 11.7041 13.958 11.3086 13.5281 11.3086C13.2048 11.3086 12.9197 11.5297 12.8004 11.8735L12.2313 13.5475C12.1162 13.4077 12.0177 13.2503 11.9443 13.0763C11.8373 12.8203 11.7832 12.5455 11.7832 12.2601C11.7832 12.1097 11.799 11.9641 11.8317 11.813C11.9192 11.3961 12.1311 11.0232 12.4312 10.7614C12.7272 10.4969 13.0851 10.3571 13.4663 10.3571C13.5806 10.3571 13.6837 10.3685 13.7867 10.3927C14.5763 10.5638 15.1494 11.3495 15.1494 12.2601ZM16.2468 4.34283L15.893 5.33973C15.8376 5.49739 15.7043 5.59945 15.5533 5.59945C15.527 5.59945 15.4987 5.59403 15.4875 5.59279C15.462 5.58706 15.438 5.57947 15.4192 5.57157L10.3322 3.26958C10.2892 3.24992 10.2485 3.22065 10.2174 3.18735L10.216 3.1858C10.1411 3.10682 10.1001 2.99965 10.1001 2.88442C10.1001 2.83502 10.1097 2.77973 10.1248 2.7328L10.4786 1.73606C10.5341 1.5784 10.6673 1.47619 10.8183 1.47619C10.862 1.47619 10.9109 1.48703 10.9526 1.50407L16.0418 3.80714C16.1812 3.86986 16.2715 4.02055 16.2715 4.19122C16.2715 4.24077 16.2619 4.29591 16.2468 4.34283Z" fill="#081D30"/>
<path d="M8.69637 14.4803C8.69637 14.5729 8.67788 14.6621 8.63939 14.7535L9.14633 15.0256C9.22015 14.8498 9.25741 14.6664 9.25741 14.4803C9.25741 13.7806 8.75418 13.2116 8.13534 13.2116C7.9707 13.2116 7.80852 13.2539 7.6532 13.3372L7.89386 13.9104C8.27984 13.7025 8.69637 14.0378 8.69637 14.4803Z" fill="#081D30"/>
<path d="M8.13659 15.749C8.30123 15.749 8.4634 15.7069 8.61886 15.6234L8.37807 15.0502C7.99208 15.2578 7.57556 14.9225 7.57556 14.4803C7.57556 14.3877 7.59405 14.2987 7.63254 14.2073L7.12561 13.9352C7.05178 14.1108 7.01453 14.2942 7.01453 14.4803C7.01453 15.18 7.51776 15.749 8.13659 15.749Z" fill="#081D30"/>
<path d="M9.2594 6.86818H9.82045V7.50254H9.2594V6.86818Z" fill="#081D30"/>
<path d="M8.13696 6.86818H8.698V7.50254H8.13696V6.86818Z" fill="#081D30"/>
<path d="M7.01453 6.86818H7.57556V7.50254H7.01453V6.86818Z" fill="#081D30"/>
</g>
<defs>
<clipPath id="clip0_3_690">
<rect width="17.3936" height="19.6667" fill="white" transform="translate(0 0.839985)"/>
</clipPath>
</defs>
</svg>
