<svg width="16" height="20" viewBox="0 0 16 20" fill="none" xmlns="http://www.w3.org/2000/svg">
<path d="M15.7105 6.35288L15.3935 5.99454V4.15458C15.3935 4.06982 15.3637 3.98854 15.3107 3.9286C15.2577 3.86867 15.1858 3.835 15.1109 3.835H13.4836L12.884 3.15704C12.8054 3.06774 12.712 2.99694 12.6091 2.94874C12.5061 2.90054 12.3958 2.8759 12.2844 2.87625H10.5885V2.55667C10.588 2.04829 10.4092 1.56091 10.0912 1.20143C9.77332 0.841956 9.34227 0.639747 8.89265 0.639166H2.67443C2.22482 0.639747 1.79376 0.841956 1.47583 1.20143C1.15791 1.56091 0.979068 2.04829 0.978554 2.55667V16.6183H0.413262C0.338299 16.6183 0.266407 16.652 0.2134 16.7119C0.160394 16.7719 0.130615 16.8532 0.130615 16.9379V19.4946C0.130615 19.5793 0.160394 19.6606 0.2134 19.7206C0.266407 19.7805 0.338299 19.8142 0.413262 19.8142H11.4365V19.175H0.695908V17.2575H10.3059C10.3808 17.2575 10.4527 17.2238 10.5057 17.1639C10.5588 17.104 10.5885 17.0227 10.5885 16.9379V11.8246H10.8712C10.9461 11.8247 11.018 11.8584 11.0709 11.9183C11.1239 11.9782 11.1537 12.0594 11.1538 12.1442V17.0977C11.1538 17.8182 11.4069 18.5091 11.8575 19.0185C12.3081 19.528 12.9191 19.8142 13.5563 19.8142C14.1935 19.8142 14.8046 19.528 15.2551 19.0185C15.7057 18.5091 15.9588 17.8182 15.9588 17.0977V7.03083C15.9591 6.90488 15.9373 6.7801 15.8947 6.66373C15.8521 6.54736 15.7894 6.44171 15.7105 6.35288ZM12.4843 3.60901L13.1667 4.38057C13.1929 4.41024 13.2241 4.43378 13.2584 4.44984C13.2926 4.4659 13.3294 4.47417 13.3665 4.47417H14.8282V6.12689C14.8282 6.16886 14.8355 6.21042 14.8497 6.24919C14.8639 6.28797 14.8848 6.3232 14.911 6.35288L15.3107 6.80481C15.3371 6.83443 15.3579 6.86965 15.3721 6.90845C15.3863 6.94725 15.3936 6.98884 15.3935 7.03083V10.8658H14.8282V7.29557C14.8282 7.21082 14.7984 7.12955 14.7454 7.06962L13.946 6.16568C13.893 6.10576 13.8211 6.07209 13.7461 6.07208H12.2865C12.2859 5.2025 12.2844 4.47345 12.2844 4.47345C12.2842 4.38881 12.2544 4.30771 12.2014 4.24793C12.1484 4.18815 12.0766 4.15458 12.0018 4.15458H11.7191V3.51542H12.2844C12.3215 3.5153 12.3583 3.52351 12.3926 3.53958C12.4269 3.55565 12.4581 3.57925 12.4843 3.60901ZM10.8712 9.90708H10.5885V4.79375H11.7197C11.7202 5.14693 11.7215 8.15389 11.7204 8.62567C11.72 8.79382 11.749 8.96039 11.8056 9.11586C11.8623 9.27133 11.9455 9.41263 12.0505 9.53166C12.1556 9.6507 12.2803 9.74514 12.4177 9.80956C12.555 9.87398 12.7023 9.90712 12.851 9.90708H14.2629V17.0977C14.2629 17.3096 14.1885 17.5128 14.056 17.6627C13.9235 17.8125 13.7437 17.8967 13.5563 17.8967C13.3689 17.8967 13.1892 17.8125 13.0567 17.6627C12.9241 17.5128 12.8497 17.3096 12.8497 17.0977V12.1442C12.8491 11.5511 12.6405 10.9824 12.2695 10.5631C11.8986 10.1437 11.3957 9.90776 10.8712 9.90708ZM13.6291 6.71125L14.2629 7.42796V7.98958H13.415V6.71125H13.6291ZM13.1323 8.62875H14.2629V9.26792H12.851C12.7767 9.26795 12.703 9.25139 12.6344 9.21919C12.5657 9.187 12.5033 9.13979 12.4508 9.08029C12.3983 9.02078 12.3567 8.95014 12.3283 8.87242C12.3 8.79469 12.2855 8.71141 12.2857 8.62735C12.2866 8.23295 12.2868 7.32058 12.2868 6.71125H12.8497V8.30917C12.8497 8.39393 12.8795 8.47521 12.9325 8.53515C12.9855 8.59508 13.0574 8.62875 13.1323 8.62875ZM11.1538 3.51542V4.15458H10.5885V3.51542H11.1538ZM1.54385 16.6183V2.55667C1.54418 2.21775 1.66341 1.89282 1.87536 1.65317C2.08731 1.41352 2.37469 1.27871 2.67443 1.27833H8.89265C9.1924 1.27871 9.47977 1.41352 9.69172 1.65317C9.90368 1.89282 10.0229 2.21775 10.0232 2.55667V16.6183H1.54385ZM15.3935 17.0977C15.3935 17.6486 15.2 18.177 14.8554 18.5666C14.5109 18.9561 14.0436 19.175 13.5563 19.175C13.0691 19.175 12.6018 18.9561 12.2572 18.5666C11.9127 18.177 11.7191 17.6486 11.7191 17.0977V12.1442C11.7189 11.89 11.6294 11.6463 11.4705 11.4665C11.3115 11.2868 11.096 11.1857 10.8712 11.1854H10.5885V10.5463H10.8712C11.2459 10.5467 11.6051 10.7152 11.87 11.0148C12.135 11.3144 12.284 11.7205 12.2844 12.1442V17.0977C12.2844 17.4791 12.4184 17.8449 12.6569 18.1146C12.8955 18.3843 13.219 18.5358 13.5563 18.5358C13.8936 18.5358 14.2172 18.3843 14.4557 18.1146C14.6942 17.8449 14.8282 17.4791 14.8282 17.0977V11.505H15.3935V17.0977Z" fill="#081D30"/>
<path d="M8.89271 2.55667H2.67449C2.59953 2.55667 2.52764 2.59034 2.47463 2.65027C2.42162 2.7102 2.39185 2.79149 2.39185 2.87625V7.98958C2.39185 8.07434 2.42162 8.15563 2.47463 8.21556C2.52764 8.2755 2.59953 8.30917 2.67449 8.30917H8.89271C8.96767 8.30917 9.03957 8.2755 9.09257 8.21556C9.14558 8.15563 9.17536 8.07434 9.17536 7.98958V2.87625C9.17536 2.79149 9.14558 2.7102 9.09257 2.65027C9.03957 2.59034 8.96767 2.55667 8.89271 2.55667ZM8.61006 7.67H2.95714V3.19583H8.61006V7.67Z" fill="#081D30"/>
<path d="M3.80505 5.11333H4.37035V5.7525H3.80505V5.11333Z" fill="#081D30"/>
<path d="M4.93555 5.11333H5.50084V5.7525H4.93555V5.11333Z" fill="#081D30"/>
<path d="M6.06616 5.11333H6.63145V5.7525H6.06616V5.11333Z" fill="#081D30"/>
<path d="M7.19666 5.11333H7.76195V5.7525H7.19666V5.11333Z" fill="#081D30"/>
<path d="M4.48233 14.5327C4.69267 14.9065 5.02094 15.1759 5.40051 15.286C5.78008 15.3961 6.18249 15.3388 6.52603 15.1256C6.86958 14.9125 7.12852 14.5595 7.25027 14.1384C7.37203 13.7172 7.34748 13.2595 7.1816 12.8581L6.03971 10.0915C6.01697 10.0364 5.98079 9.98976 5.93541 9.95708C5.89004 9.9244 5.83736 9.90704 5.78356 9.90704C5.72977 9.90704 5.67709 9.9244 5.63171 9.95708C5.58634 9.98976 5.55016 10.0364 5.52741 10.0915L4.38559 12.8581C4.27523 13.1237 4.22622 13.4166 4.24313 13.7095C4.26005 14.0023 4.34235 14.2856 4.48233 14.5327ZM4.89785 13.1284L5.78356 10.9824L6.66927 13.1284C6.73877 13.2968 6.76959 13.4823 6.75887 13.6677C6.74816 13.8532 6.69625 14.0326 6.60796 14.1893C6.51966 14.3461 6.39783 14.4751 6.25373 14.5645C6.10964 14.6539 5.94793 14.7008 5.78356 14.7008C5.6192 14.7008 5.45749 14.6539 5.31339 14.5645C5.16929 14.4751 5.04746 14.3461 4.95917 14.1893C4.87088 14.0326 4.81897 13.8532 4.80825 13.6677C4.79753 13.4823 4.82835 13.2968 4.89785 13.1284Z" fill="#081D30"/>
</svg>
