<svg width="15" height="20" viewBox="0 0 15 20" fill="none" xmlns="http://www.w3.org/2000/svg">
<path d="M1.5322 2.84643C1.67294 2.84643 1.78697 2.71745 1.78697 2.55837V1.92727L2.42608 2.74864C2.64681 3.03233 3.02418 2.64505 2.80864 2.36809L2.30256 1.71768C3.17742 1.40564 2.99041 0.0200488 2.06624 3.78348e-05C2.06563 -7.73913e-05 1.53281 0.000114652 1.53224 3.78348e-05C1.3915 3.78348e-05 1.27747 0.129014 1.27747 0.288103V2.55837C1.27743 2.71745 1.3915 2.84643 1.5322 2.84643ZM2.06624 0.576169C2.22688 0.576169 2.36262 0.71444 2.36262 0.878138C2.36262 1.0418 2.22691 1.18007 2.06624 1.18007C2.00159 1.18007 1.89248 1.18057 1.78993 1.18111C1.78915 0.97946 1.78864 0.777814 1.7884 0.576169H2.06624Z" fill="#081D30"/>
<path d="M5.45615 0.576131H5.62942V2.55318C5.64111 2.93462 6.12742 2.93431 6.13896 2.55318V0.288065C6.13896 0.128977 6.02493 0 5.88419 0H5.45615C5.11883 0.0132126 5.11907 0.563034 5.45615 0.576131Z" fill="#081D30"/>
<path d="M13.2462 2.87616C13.252 2.87616 13.2579 2.87608 13.2637 2.87597C13.7159 2.86564 14.0885 2.45766 14.112 1.94709C14.1405 1.32556 13.6682 0.882594 13.1441 0.917661L13.1942 0.576131H13.7305C14.0677 0.563034 14.0678 0.0131358 13.7305 0H12.9781C12.8535 0 12.7471 0.101975 12.7268 0.240976L12.5777 1.25858C12.5427 1.49783 12.7595 1.65638 12.9596 1.5544C13.0376 1.51469 13.0958 1.49057 13.246 1.49057C13.4489 1.49057 13.6137 1.68852 13.6032 1.91721C13.5935 2.12757 13.4399 2.29569 13.2535 2.29991C13.1236 2.30245 13.0021 2.22575 12.9366 2.09861C12.7707 1.77683 12.3305 2.06681 12.4963 2.38864C12.6518 2.69072 12.938 2.87616 13.2462 2.87616Z" fill="#081D30"/>
<path d="M10.1328 18.4206L10.1321 17.2691C10.1321 17.2611 10.1317 17.2531 10.1312 17.2451C10.1168 17.051 10.0129 16.8925 9.86621 16.8412C9.72041 16.7901 9.56598 16.8529 9.45344 17.0091C9.33805 17.1693 8.81097 18.244 8.65216 18.5695C8.55535 18.7681 8.69802 18.9967 8.87524 18.9967H9.62251V19.3772C9.62251 19.5363 9.73654 19.6653 9.87728 19.6653C10.018 19.6653 10.1321 19.5363 10.1321 19.3772V18.9967C10.4698 18.9846 10.4704 18.4338 10.1328 18.4206ZM9.62251 18.4206H9.30829C9.42131 18.1924 9.5311 17.9735 9.62251 17.7946V18.4206Z" fill="#081D30"/>
<path d="M6.43127 19.0839C6.24984 19.0865 6.05815 19.0883 5.89231 19.0889C6.00067 18.924 6.14572 18.6987 6.33557 18.3919C6.45916 18.1921 6.60437 17.9093 6.60437 17.6474C6.60437 17.1689 6.2602 16.7798 5.83717 16.7798C5.47139 16.7798 5.1548 17.0741 5.08441 17.4796C5.0573 17.6356 5.14725 17.7871 5.28531 17.8177C5.4236 17.8483 5.5573 17.7466 5.58441 17.5905C5.64827 17.2567 6.07384 17.2922 6.09453 17.6322C6.06477 17.7909 6.00145 17.9269 5.91809 18.0616C5.60126 18.5736 5.41218 18.8536 5.31065 19.0041C5.19675 19.1728 5.01793 19.541 5.33344 19.66C5.36704 19.6727 6.15302 19.6641 6.43775 19.66C6.76682 19.6553 6.76114 19.0782 6.43127 19.0839Z" fill="#081D30"/>
<path d="M9.50034 2.31843C9.37251 2.31843 9.26282 2.21073 9.24519 2.06797C9.19974 1.69905 8.69505 1.77867 8.74057 2.14755C8.79309 2.57343 9.11974 2.89456 9.50034 2.89456C10.1617 2.89721 10.512 1.99395 10.0708 1.44728C10.512 0.900344 10.1615 -0.00260614 9.5003 5.65342e-06C9.13455 5.65342e-06 8.81792 0.294331 8.74754 0.69985C8.68408 1.06531 9.18404 1.17635 9.24753 0.810851C9.31354 0.469245 9.75171 0.517102 9.75796 0.867696C9.75796 1.02844 9.6424 1.15922 9.5003 1.15922C9.1709 1.15922 9.1709 1.73535 9.5003 1.73535C9.84126 1.74887 9.84132 2.30487 9.50034 2.31843Z" fill="#081D30"/>
<path d="M13.2878 17.7791C13.2774 17.7791 13.2671 17.7794 13.2568 17.7798C13.4135 17.5142 13.5743 17.3721 13.5804 17.3668C13.6925 17.2716 13.7156 17.0917 13.6319 16.9645C13.5478 16.8368 13.3882 16.8103 13.2754 16.9053C13.2468 16.9293 12.5788 17.5027 12.4636 18.5785C12.3874 19.1391 12.7847 19.6653 13.2878 19.6653C14.3941 19.6135 14.3936 17.8307 13.2878 17.7791ZM13.2878 19.0892C13.0881 19.0892 12.9462 18.8735 12.9681 18.6604C13.0449 18.2226 13.6003 18.2725 13.6121 18.7222C13.6121 18.9246 13.4666 19.0892 13.2878 19.0892Z" fill="#081D30"/>
<path d="M14.0418 13.2925V11.9197C14.0418 11.5473 13.5322 11.5473 13.5322 11.9197V13.0265C13.3601 12.9842 13.1876 12.9804 13.0148 13.0149V10.4158C13.0148 10.2567 12.9008 10.1277 12.7601 10.1277L10.0732 10.1272C9.94317 10.1503 9.81844 10.2446 9.81844 10.4153V13.0228C9.64608 12.9828 9.47361 12.9812 9.30098 13.018V10.4151C9.30098 10.256 9.18694 10.1271 9.04624 10.1271L6.35936 10.1266C6.22929 10.1496 6.10456 10.2439 6.10456 10.4146V13.0275C5.93247 12.9846 5.76 12.9801 5.58713 13.0141V10.4145C5.58713 10.2554 5.4731 10.1265 5.3324 10.1265L2.132 10.1259C1.98936 10.1259 1.87332 9.99452 1.87332 9.83312V6.64302C2.04568 6.68243 2.21818 6.68385 2.39075 6.64736V9.25239C2.39075 9.41147 2.50478 9.54045 2.64548 9.54045L5.33233 9.54095C5.4624 9.5179 5.58713 9.42357 5.58713 9.25289V6.6512C5.76 6.68515 5.93247 6.6807 6.10456 6.6378V9.25308C6.10456 9.41217 6.21859 9.54114 6.35929 9.54114L9.04618 9.54164C9.17624 9.5186 9.30098 9.42426 9.30098 9.25358V6.64732C9.47361 6.68412 9.64611 6.6825 9.81844 6.64248V9.25373C9.81844 9.41282 9.93247 9.54179 10.0732 9.54179L12.76 9.54229C12.8901 9.51925 13.0148 9.42492 13.0148 9.25423V6.65047C13.1876 6.685 13.3601 6.68116 13.5322 6.63887V10.2995C13.5322 10.672 14.0418 10.672 14.0418 10.2995V6.37278C15.0415 5.51876 14.5172 3.69773 13.2479 3.68913C11.9453 3.70065 11.4454 5.59316 12.5053 6.41445V8.96605L10.3279 8.96563V6.3853C11.3453 5.54042 10.828 3.6985 9.54892 3.68909C8.25598 3.69976 7.74888 5.57169 8.7914 6.4027V8.96536L6.61406 8.96494V6.3692C7.60886 5.51273 7.08278 3.69742 5.81605 3.68905C4.51091 3.70084 4.01299 5.59896 5.07753 6.41752V8.96467L2.90022 8.96424V6.40312C3.94356 5.5718 3.43616 3.69984 2.14311 3.68913C1.98338 3.68913 1.82685 3.72131 1.67779 3.78484C1.54613 3.84096 1.47962 4.00711 1.52921 4.15598C1.57884 4.30482 1.72593 4.38002 1.85746 4.32394C2.3722 4.09334 2.96381 4.5537 2.95338 5.18142C2.95338 5.68031 2.58152 6.09754 2.14311 6.09754C1.72691 6.09754 1.37248 5.73078 1.33623 5.26254C1.32397 5.10402 1.20029 4.98668 1.0602 5.0007C0.920038 5.01457 0.81633 5.1543 0.828627 5.31277C0.863275 5.76031 1.06601 6.14436 1.36368 6.38925V9.83309C1.36368 10.3121 1.7083 10.7019 2.13183 10.702L5.07749 10.7025V13.2477C4.01289 14.0665 4.51095 15.9644 5.81605 15.9761C7.08281 15.9677 7.60879 14.1522 6.61403 13.296V10.7027L8.79137 10.7032V13.2625C7.74881 14.0938 8.25605 15.9655 9.54892 15.9761C10.828 15.9667 11.3453 14.1246 10.3279 13.2799V10.7033L12.5052 10.7038V13.2508C11.4453 14.0723 11.9454 15.9646 13.2479 15.9761C14.5173 15.9676 15.0414 14.1463 14.0418 13.2925ZM13.2479 4.26526C13.6947 4.26526 14.0582 4.67623 14.0582 5.18142C14.0137 6.39682 12.482 6.39647 12.4377 5.18142C12.4377 4.67623 12.8011 4.26526 13.2479 4.26526ZM9.54899 4.26526C9.99576 4.26526 10.3593 4.67623 10.3593 5.18142C10.3148 6.39682 8.78308 6.39647 8.73875 5.18142C8.73872 4.67623 9.10219 4.26526 9.54899 4.26526ZM5.81612 4.26526C6.26289 4.26526 6.6264 4.67623 6.6264 5.18142C6.5819 6.39686 5.05018 6.39647 5.00585 5.18142C5.00582 4.67623 5.36932 4.26526 5.81612 4.26526ZM5.81612 15.4C5.36932 15.4 5.00582 14.9891 5.00582 14.4839C5.05032 13.2685 6.58203 13.2688 6.62636 14.4839C6.62636 14.9891 6.26289 15.4 5.81612 15.4ZM9.54899 15.4C9.10223 15.4 8.73872 14.9891 8.73872 14.4839C8.78322 13.2685 10.3149 13.2688 10.3592 14.4839C10.3592 14.9891 9.99576 15.4 9.54899 15.4ZM13.2479 15.4C12.8011 15.4 12.4376 14.9891 12.4376 14.4839C12.4376 13.9931 12.8078 13.5677 13.2479 13.5677C13.6947 13.5677 14.0582 13.9787 14.0582 14.4839C14.0582 14.9891 13.6947 15.4 13.2479 15.4Z" fill="#081D30"/>
</svg>
