<svg width="16" height="17" viewBox="0 0 16 17" fill="none" xmlns="http://www.w3.org/2000/svg">
<path d="M6.49111 9.98235C6.35002 9.82282 6.12064 9.82282 5.97955 9.98235L3.70246 12.557V10.272C3.70246 10.0462 3.54038 9.86291 3.34067 9.86291C3.14096 9.86291 2.97888 10.0462 2.97888 10.272V13.5445C2.97888 13.5977 2.98829 13.6509 3.0071 13.7008C3.04328 13.8006 3.11419 13.8808 3.20319 13.9225C3.2466 13.9421 3.29364 13.9536 3.34067 13.9536H6.23497C6.43467 13.9536 6.59675 13.7703 6.59675 13.5445C6.59675 13.3187 6.43467 13.1355 6.23497 13.1355H4.21402L6.49039 10.5616C6.63221 10.4012 6.63221 10.1427 6.49111 9.98235Z" fill="#081D30"/>
<path d="M12.8862 2.5308C12.8421 2.51116 12.7951 2.49971 12.748 2.49971H9.85373C9.65402 2.49971 9.49194 2.68297 9.49194 2.90878C9.49194 3.13458 9.65402 3.31784 9.85373 3.31784H11.8747L9.59831 5.89169C9.45721 6.05123 9.45721 6.31058 9.59831 6.47011C9.6685 6.55029 9.76111 6.59038 9.85373 6.59038C9.94635 6.59038 10.039 6.55029 10.1099 6.47093L12.3862 3.89626V6.18131C12.3862 6.40712 12.5483 6.59038 12.748 6.59038C12.9477 6.59038 13.1098 6.40712 13.1098 6.18131V2.90878C13.1098 2.8556 13.1004 2.80242 13.0816 2.75251C13.0454 2.6527 12.9745 2.57252 12.8862 2.5308Z" fill="#081D30"/>
<path d="M13.4713 0.045311H2.61765C1.62057 0.045311 0.808716 0.962438 0.808716 2.09064V14.3626C0.808716 15.4908 1.62057 16.408 2.61765 16.408H13.4713C14.4684 16.408 15.2802 15.4908 15.2802 14.3626V2.09064C15.2802 0.962438 14.4684 0.045311 13.4713 0.045311ZM14.5566 14.3626C14.5566 15.0392 14.0697 15.5898 13.4713 15.5898H2.61765C2.01926 15.5898 1.53229 15.0392 1.53229 14.3626V2.09064C1.53229 1.41405 2.01926 0.863444 2.61765 0.863444H13.4713C14.0697 0.863444 14.5566 1.41405 14.5566 2.09064V14.3626Z" fill="#081D30"/>
</svg>
