<svg width="18" height="21" viewBox="0 0 18 21" fill="none" xmlns="http://www.w3.org/2000/svg">
<g clip-path="url(#clip0_3_708)">
<path d="M16.2856 11.202L13.8605 10.0135V9.16022C14.1943 8.93492 14.4834 8.62842 14.7083 8.2612C14.9333 7.89398 15.089 7.4745 15.165 7.03083H15.2194C15.4356 7.03431 15.6442 6.93663 15.7992 6.75929C15.9542 6.58194 16.0429 6.33946 16.0458 6.08519C16.0488 5.83091 15.9657 5.58567 15.8149 5.40341C15.6641 5.22115 15.4579 5.11681 15.2417 5.11333L15.508 4.38724C15.7356 3.76678 15.7472 3.06614 15.5404 2.43571C15.3336 1.80528 14.9248 1.29533 14.4019 1.01532L13.6431 0.609445C13.1941 0.375035 12.7004 0.284441 12.212 0.346853C11.7236 0.409266 11.258 0.622465 10.8623 0.964822L10.4394 1.34001C10.0076 1.47078 9.63675 1.79567 9.40664 2.24475C9.27956 2.49283 9.20026 2.77065 9.17435 3.05865C9.14843 3.34666 9.17651 3.63784 9.25662 3.9117C8.84632 3.81519 8.42289 3.82731 8.01706 3.94717C8.13323 3.36733 8.07461 2.75804 7.85121 2.22338C7.62781 1.68871 7.25348 1.26183 6.79217 1.01564L6.03337 0.609445C5.58438 0.375035 5.09065 0.284441 4.60227 0.346853C4.1139 0.409266 3.64825 0.622465 3.25256 0.964822L2.82968 1.34001C2.58475 1.41361 2.35695 1.55076 2.16298 1.74141C1.96902 1.93206 1.81382 2.17136 1.70878 2.44175C1.60374 2.71214 1.55152 3.00676 1.55596 3.30398C1.5604 3.60121 1.62138 3.89349 1.73443 4.15938L2.14046 5.11333C1.92422 5.11859 1.71861 5.22464 1.56887 5.40815C1.41913 5.59167 1.33751 5.83762 1.34198 6.0919C1.34645 6.34617 1.43664 6.58795 1.5927 6.76403C1.74876 6.94012 1.95792 7.03609 2.17416 7.03083H2.22851C2.30484 7.47429 2.46066 7.89352 2.68561 8.26059C2.91055 8.62765 3.19944 8.93413 3.53303 9.15958V10.0135L1.10798 11.202C0.86008 11.3229 0.64827 11.5276 0.499396 11.7901C0.350522 12.0527 0.271286 12.3613 0.27173 12.6769V16.9379C0.27173 17.0227 0.300364 17.104 0.351332 17.1639C0.402299 17.2238 0.471426 17.2575 0.543506 17.2575H2.44593V19.8142C2.44593 19.8989 2.47457 19.9802 2.52553 20.0401C2.5765 20.1001 2.64563 20.1337 2.71771 20.1337H14.6758C14.7479 20.1337 14.817 20.1001 14.868 20.0401C14.919 19.9802 14.9476 19.8989 14.9476 19.8142V17.2575H16.85C16.9221 17.2575 16.9912 17.2238 17.0422 17.1639C17.0932 17.104 17.1218 17.0227 17.1218 16.9379V12.6769C17.1222 12.3613 17.043 12.0527 16.8941 11.7901C16.7453 11.5276 16.5335 11.3229 16.2856 11.202ZM9.61347 4.7065L10.372 5.11333C10.7654 5.32409 11.0729 5.70784 11.2285 6.1822C11.384 6.65655 11.3752 7.18371 11.2039 7.65051L11.1224 7.86942L10.8438 7.20756C10.826 7.16541 10.8006 7.12839 10.7692 7.09915C10.7379 7.0699 10.7015 7.04915 10.6625 7.03837C10.6236 7.0276 10.5831 7.02706 10.544 7.03681C10.5048 7.04655 10.468 7.06634 10.4361 7.09475L10.0013 7.47825C9.62494 7.81016 9.1672 7.98958 8.69677 7.98958C8.22633 7.98958 7.76859 7.81016 7.39225 7.47825L6.9574 7.09475C6.92567 7.06649 6.889 7.04688 6.85004 7.03731C6.81108 7.02775 6.7708 7.02849 6.7321 7.03946C6.6933 7.05016 6.65696 7.07076 6.62568 7.09981C6.5944 7.12886 6.56894 7.16565 6.5511 7.20756L6.25079 7.9164L6.0263 7.38877C5.93873 7.18278 5.89737 6.95389 5.90616 6.72383C5.91494 6.49376 5.97357 6.27016 6.07648 6.07422C6.1794 5.87829 6.32318 5.71653 6.49419 5.60429C6.6652 5.49205 6.85777 5.43306 7.05361 5.43292C7.26297 5.43268 7.46914 5.49334 7.65373 5.60948C7.83833 5.72563 7.99564 5.89366 8.11163 6.09861L8.19697 6.24945L8.64921 5.89471L8.56387 5.74419C8.32232 5.3186 7.9585 5.00956 7.539 4.87365C7.84729 4.64992 8.19725 4.5178 8.55867 4.48868C8.92009 4.45956 9.28211 4.53432 9.61347 4.7065ZM11.4145 9.26792H11.6863C11.7584 9.26792 11.8275 9.30159 11.8785 9.36152C11.9294 9.42145 11.9581 9.50274 11.9581 9.5875C11.9581 9.67226 11.9294 9.75355 11.8785 9.81348C11.8275 9.87341 11.7584 9.90708 11.6863 9.90708H11.4145V9.26792ZM7.88144 12.9556C8.41216 13.152 8.98138 13.152 9.51209 12.9556V13.6098L8.69677 14.5685L7.88144 13.6098V12.9556ZM8.69677 12.4637C8.12033 12.463 7.56769 12.1934 7.16009 11.7141C6.75249 11.2348 6.52321 10.5849 6.52256 9.90708V8.70417L6.89163 7.83586L7.06611 7.98958C7.53655 8.40447 8.10873 8.62875 8.69677 8.62875C9.28481 8.62875 9.85699 8.40447 10.3274 7.98958L10.5019 7.83586L10.871 8.70417V9.90708C10.8703 10.5849 10.641 11.2348 10.2334 11.7141C9.82584 12.1934 9.2732 12.463 8.69677 12.4637ZM5.97901 9.90708H5.70724C5.63516 9.90708 5.56603 9.87341 5.51506 9.81348C5.4641 9.75355 5.43546 9.67226 5.43546 9.5875C5.43546 9.50274 5.4641 9.42145 5.51506 9.36152C5.56603 9.30159 5.63516 9.26792 5.70724 9.26792H5.97901V9.90708ZM2.44593 16.3115V16.6183H0.815281V12.6769C0.815182 12.4877 0.862792 12.3027 0.952091 12.1453C1.04139 11.9879 1.16837 11.8652 1.31698 11.7926L3.90944 10.5226C3.95908 10.4983 4.00145 10.4571 4.0312 10.4045C4.06096 10.3518 4.07675 10.2899 4.07659 10.2267V8.96879C4.07515 8.90824 4.05975 8.84929 4.03203 8.79824C4.00432 8.74718 3.96533 8.70594 3.91923 8.67892C3.59433 8.48888 3.31525 8.20589 3.10764 7.85593C2.90002 7.50597 2.77052 7.10027 2.73103 6.6761C2.72367 6.5979 2.69203 6.52564 2.64219 6.47316C2.59234 6.42068 2.52779 6.39166 2.46088 6.39167H2.17416C2.10208 6.39167 2.03295 6.358 1.98198 6.29806C1.93102 6.23813 1.90238 6.15684 1.90238 6.07208C1.90238 5.98732 1.93102 5.90604 1.98198 5.8461C2.03295 5.78617 2.10208 5.7525 2.17416 5.7525H2.44593C2.48178 5.7525 2.51728 5.74416 2.55038 5.72796C2.58348 5.71176 2.61352 5.68802 2.63878 5.65811C2.66404 5.62819 2.68402 5.5927 2.69757 5.55367C2.71112 5.51463 2.71796 5.47284 2.71771 5.43068L2.71581 5.1111C2.71555 5.06228 2.70579 5.01417 2.68727 4.97048L2.22063 3.87335C2.14246 3.68915 2.10112 3.48639 2.09976 3.28054C2.0984 3.07469 2.13705 2.87119 2.21277 2.68558C2.2885 2.49998 2.39928 2.33717 2.53667 2.2096C2.67406 2.08202 2.83442 1.99304 3.00552 1.94946C3.04398 1.93944 3.0802 1.91994 3.11178 1.89225L3.57924 1.47679C3.89643 1.20264 4.26961 1.03195 4.66097 0.981999C5.05233 0.93205 5.44797 1.00462 5.8078 1.19237L6.56713 1.59792C6.96058 1.80868 7.26807 2.19242 7.4236 2.66678C7.57914 3.14114 7.57032 3.66829 7.39904 4.13509L7.35501 4.25493C7.25181 4.32212 7.15257 4.3974 7.05796 4.48024L6.62937 4.85767C6.38494 4.93151 6.15767 5.06876 5.96422 5.25936C5.77078 5.44995 5.61608 5.68905 5.51146 5.95912C5.40684 6.22918 5.35497 6.52336 5.35964 6.82008C5.36432 7.11679 5.42542 7.40851 5.53847 7.67383L5.94504 8.62875H5.70724C5.491 8.62875 5.28362 8.72976 5.13072 8.90956C4.97781 9.08936 4.89191 9.33322 4.89191 9.5875C4.89191 9.84178 4.97781 10.0856 5.13072 10.2654C5.28362 10.4452 5.491 10.5462 5.70724 10.5462H6.03337C6.11121 10.9884 6.26767 11.4063 6.49249 11.7724C6.71731 12.1385 7.00541 12.4446 7.33789 12.6705V13.4992L3.44117 14.7721C3.15534 14.8662 2.90345 15.0675 2.72381 15.3454C2.54417 15.6232 2.4466 15.9625 2.44593 16.3115ZM14.404 19.4946H12.7734V16.9379H12.2298V19.4946H5.16369V16.9379H4.62014V19.4946H2.98948V16.3115C2.98988 16.102 3.04851 15.8983 3.15645 15.7316C3.26439 15.5649 3.41572 15.4442 3.58739 15.3879L7.53058 14.1L8.50544 15.2464C8.5564 15.3063 8.62552 15.3399 8.69758 15.3399C8.76965 15.3399 8.83876 15.3063 8.88973 15.2464L9.86459 14.1L13.8061 15.3879C13.9778 15.4442 14.1291 15.5649 14.2371 15.7316C14.345 15.8983 14.4037 16.102 14.404 16.3115V19.4946ZM16.5783 16.6183H14.9476V16.3115C14.9469 15.9625 14.8494 15.6232 14.6697 15.3454C14.4901 15.0675 14.2382 14.8662 13.9524 14.7721L10.0556 13.4992V12.6705C10.3881 12.4446 10.6762 12.1385 10.901 11.7724C11.1259 11.4063 11.2823 10.9884 11.3602 10.5462H11.6863C11.9025 10.5462 12.1099 10.4452 12.2628 10.2654C12.4157 10.0856 12.5016 9.84178 12.5016 9.5875C12.5016 9.33322 12.4157 9.08936 12.2628 8.90956C12.1099 8.72976 11.9025 8.62875 11.6863 8.62875H11.4368L11.7031 7.90298C11.9307 7.28252 11.9424 6.58187 11.7355 5.95145C11.5287 5.32102 11.12 4.81106 10.597 4.53105L9.9665 4.19325L9.83061 3.87367C9.75239 3.68948 9.711 3.48671 9.7096 3.28084C9.70819 3.07497 9.74681 2.87144 9.82251 2.6858C9.89821 2.50016 10.009 2.33731 10.1464 2.20969C10.2838 2.08208 10.4441 1.99307 10.6152 1.94946C10.6537 1.93944 10.6899 1.91994 10.7215 1.89225L11.1889 1.47679C11.5061 1.20264 11.8793 1.03195 12.2707 0.981999C12.662 0.93205 13.0577 1.00462 13.4175 1.19237L14.1768 1.59792C14.5703 1.80868 14.8778 2.19242 15.0333 2.66678C15.1888 3.14114 15.18 3.66829 15.0087 4.13509L14.6962 4.9855C14.6814 5.02586 14.6738 5.06937 14.6739 5.11333L14.6758 5.43292C14.6758 5.51768 14.7045 5.59896 14.7554 5.6589C14.8064 5.71883 14.8755 5.7525 14.9476 5.7525H15.2194C15.2915 5.7525 15.3606 5.78617 15.4116 5.8461C15.4625 5.90604 15.4912 5.98732 15.4912 6.07208C15.4912 6.15684 15.4625 6.23813 15.4116 6.29806C15.3606 6.358 15.2915 6.39167 15.2194 6.39167H14.9327C14.8657 6.39166 14.8012 6.42068 14.7513 6.47316C14.7015 6.52564 14.6699 6.5979 14.6625 6.6761C14.6229 7.10188 14.4925 7.50901 14.2835 7.85978C14.0744 8.21056 13.7935 8.49362 13.4667 8.68276C13.4214 8.70922 13.3833 8.75 13.3567 8.80053C13.33 8.85106 13.3159 8.90933 13.3159 8.96879V10.2267C13.3159 10.2897 13.3317 10.3514 13.3615 10.4039C13.3912 10.4564 13.4335 10.4974 13.483 10.5216L16.0766 11.7926C16.2252 11.8652 16.3521 11.9879 16.4414 12.1453C16.5307 12.3027 16.5784 12.4877 16.5783 12.6769V16.6183Z" fill="#081D30"/>
</g>
<defs>
<clipPath id="clip0_3_708">
<rect width="17.3936" height="20.4533" fill="white"/>
</clipPath>
</defs>
</svg>
